<?xml version="1.0" encoding="UTF-8"?>
<!DOCTYPE svg PUBLIC "-//W3C//DTD SVG 1.0//EN" "http://www.w3.org/TR/2001/REC-SVG-20010904/DTD/svg10.dtd">
<!-- Creator: CorelDRAW -->
<svg xmlns="http://www.w3.org/2000/svg" xml:space="preserve" width="254mm" height="254mm" version="1.0" style="shape-rendering:geometricPrecision; text-rendering:geometricPrecision; image-rendering:optimizeQuality; fill-rule:evenodd; clip-rule:evenodd"
viewBox="0 0 25400 25400"
 xmlns:xlink="http://www.w3.org/1999/xlink"
 xmlns:xodm="http://www.corel.com/coreldraw/odm/2003">
 <defs>
  <style type="text/css">
   <![CDATA[
    .fil0 {fill:white}
   ]]>
  </style>
 </defs>
 <g id="Layer_x0020_1">
  <metadata id="CorelCorpID_0Corel-Layer"/>
  <path class="fil0" d="M6807.07 23967.13l2092.85 -2092.85 0 2961.24c1025.9,321.15 2108.05,514.86 3227.63,564.48l0 -6446.87c0,-820.65 -376.34,-1849.65 -1123.33,-2159.06 -747.01,-309.41 -1740.75,152.09 -2321.03,732.37l-4558.78 4558.78c805.87,736.67 1707.04,1370.58 2682.66,1881.91zm6465.42 -23967.11c1119.58,49.63 2201.72,243.32 3227.64,564.48l0 2961.26 2092.85 -2092.85c975.57,511.38 1876.9,1145.14 2682.66,1881.91l-4558.66 4558.65c-580.31,580.31 -1574.06,1041.89 -2321.15,732.51 -747.02,-309.36 -1123.34,-1338.43 -1123.34,-2159.07l0 -6446.89zm8812.73 4124.39c736.65,805.87 1370.61,1707.03 1881.91,2682.66l-2092.85 2092.85 2961.24 0c320.93,1026.03 514.84,2108.06 564.48,3227.64l-6446.67 0c-820.68,0 -1849.76,-376.3 -2159.26,-1123.34 -309.49,-746.99 152.09,-1740.75 732.37,-2321.02l4558.78 -4558.79zm3314.77 9148.08c-49.64,1119.59 -243.33,2201.72 -564.48,3227.64l-2961.22 0 2092.83 2092.82c-511.37,975.58 -1145.15,1876.9 -1881.91,2682.66l-4558.63 -4558.63c-580.31,-580.3 -1041.96,-1574.08 -732.51,-2321.15 309.44,-747.07 1338.59,-1123.34 2159.26,-1123.34l6446.66 0zm-4124.38 8812.72c-805.87,736.64 -1707.02,1370.61 -2682.66,1881.91l-2092.82 -2092.84 0 2961.23c-1026.03,320.93 -2108.06,514.84 -3227.64,564.48l0 -6446.86c0,-820.63 376.31,-1849.71 1123.34,-2159.06 747.09,-309.39 1740.85,152.2 2321.16,732.51l4558.62 4558.63zm-17960.79 -809.57c-736.6,-805.86 -1370.58,-1707.05 -1881.91,-2682.66l2092.85 -2092.85 -2961.26 0c-320.88,-1026.03 -514.84,-2108.06 -564.48,-3227.64l6446.68 0c820.67,0 1849.76,376.3 2159.27,1123.34 309.48,746.97 -152.09,1740.73 -732.38,2321.02l-4558.77 4558.79zm-3314.81 -9148.08c49.63,-1119.59 243.34,-2201.73 564.48,-3227.64l2961.27 0 -2092.86 -2092.86c511.38,-975.59 1145.13,-1876.91 1881.9,-2682.67l4558.66 4558.67c580.31,580.3 1041.9,1574.05 732.51,2321.16 -309.35,747.02 -1338.43,1123.34 -2159.06,1123.34l-6446.9 0zm4124.38 -8812.76c805.86,-736.65 1707.03,-1370.61 2682.67,-1881.9l2092.86 2092.86 0 -2961.27c1026.03,-320.93 2108.05,-514.85 3227.63,-564.48l0 6446.69c0,820.7 -376.3,1849.77 -1123.34,2159.28 -746.98,309.47 -1740.74,-152.09 -2321.02,-732.38l-4558.8 -4558.8zm8575.63 15412.58c0,-3315.05 2712.31,-6027.36 6027.36,-6027.36 -3315.05,0 -6027.36,-2712.3 -6027.36,-6027.35 0,3315.05 -2712.32,6027.35 -6027.36,6027.35 3315.04,0 6027.36,2712.31 6027.36,6027.36z"/>
 </g>
</svg>
