<?xml version="1.0" encoding="UTF-8"?>
<!DOCTYPE svg PUBLIC "-//W3C//DTD SVG 1.1//EN" "http://www.w3.org/Graphics/SVG/1.1/DTD/svg11.dtd">
<!-- Creator: CorelDRAW -->
<svg xmlns="http://www.w3.org/2000/svg" xml:space="preserve" width="272.644mm" height="50.8mm" version="1.1" style="shape-rendering:geometricPrecision; text-rendering:geometricPrecision; image-rendering:optimizeQuality; fill-rule:evenodd; clip-rule:evenodd"
viewBox="0 0 27264.36 5080"
 xmlns:xlink="http://www.w3.org/1999/xlink"
 xmlns:xodm="http://www.corel.com/coreldraw/odm/2003">
 <defs>
  <style type="text/css">
   <![CDATA[
    .fil0 {fill:black;fill-rule:nonzero}
    .fil1 {fill:#F56565;fill-rule:nonzero}
   ]]>
  </style>
 </defs>
 <g id="Layer_x0020_1">
  <metadata id="CorelCorpID_0Corel-Layer"/>
  <g id="_1776600622912">
   <g>
    <path class="fil0" d="M25664.13 5077.21c-14.89,-0.15 -30.71,0.31 -45.76,0.31 -309.33,0 -614.62,-78.03 -885.94,-226.33 -257.67,-148.61 -466.17,-369.98 -599.11,-636.03 -135.74,-286.37 -206.17,-599.42 -206.17,-916.04 0,-20.16 0.31,-40.95 0.78,-60.81 0,-369.36 65.62,-693.58 205.23,-972.81 267.14,-542.96 820.17,-887.5 1425.64,-887.5 20.01,0 40.49,0.62 60.35,1.09 221.68,0 430.95,36.92 627.96,106.73 197.01,69.81 369.36,180.57 521.23,328.41 151.88,147.83 270.86,332.44 357.11,562.34 90.29,225.71 131.4,496.57 131.4,812.72l0 258.6 -2934.74 -0.15 0 -574.6 2126.05 0c0,-164.13 -36.92,-303.75 -102.54,-430.95 -69.81,-123.17 -164.13,-225.71 -287.3,-299.56 -123.17,-73.84 -262.64,-110.76 -426.92,-110.76 -6.2,-0.31 -12.56,-0.46 -18.77,-0.46 -152.8,0 -302.97,42.97 -432.81,123.32 -131.39,82.07 -233.93,192.98 -307.78,328.41 -69.8,135.43 -106.72,283.27 -110.76,443.36l0 492.54c0,213.46 41.11,389.99 114.95,537.68 78.03,147.83 184.76,262.63 320.19,340.66 135.43,82.06 295.52,118.98 480.28,118.98 123.17,0 233.93,-16.44 332.44,-53.36 102.54,-32.89 188.79,-86.25 258.6,-155.91 73.84,-65.62 131.4,-151.87 164.13,-254.41l792.09 90.29c-47.78,203.22 -146.91,391.23 -287.3,545.74 -135.43,151.87 -311.97,275.05 -533.65,357.11 -213.45,82.06 -459.64,127.21 -738.88,127.21l0 4.18z"/>
    <path class="fil0" d="M21272.43 5068.99c-9.47,0 -19.55,0.16 -29.32,0.16 -551.64,0 -1048.37,-334.46 -1255.46,-845.77 -127.68,-295.05 -193.76,-613.53 -193.76,-935.12 0,-22.18 0.31,-44.83 0.93,-66.55 0,-398.06 65.62,-734.69 197.01,-1009.73 214.39,-506.97 711.74,-836.62 1262.6,-836.62 185.23,0 369.05,37.7 539.23,110.46 135.43,69.81 242.16,155.9 320.19,254.41 82.06,98.51 139.61,188.79 184.76,279.08l32.73 0 0 -1789.57 849.64 0 0 4777.67 -833.2 0 0 -566.38 -49.17 0c-41.11,90.28 -106.73,180.57 -188.8,279.08 -197.01,222.76 -480.43,350.43 -777.97,350.43 -19.7,0 -39.71,-0.62 -59.26,-1.7l-0.15 0.15zm233.93 -689.55c180.57,0 328.41,-49.33 459.65,-147.84 123.17,-94.47 221.68,-233.93 287.3,-410.47 61.58,-168.31 94.47,-369.36 94.47,-603.3 0,-233.93 -32.89,-435.13 -98.51,-607.48 -53.98,-156.99 -152.49,-295.37 -283.26,-398.06 -125.66,-90.91 -277.37,-140.08 -432.66,-140.08 -8.99,0 -17.99,0.15 -26.83,0.46 -188.8,0 -344.86,49.33 -472.06,143.65 -123.17,98.51 -217.49,233.94 -283.27,410.47 -61.58,168.32 -94.47,369.37 -94.47,591.04 0,221.68 32.89,422.73 94.47,599.27 65.62,172.35 164.13,311.96 287.3,410.47 127.21,98.51 287.3,151.87 467.87,151.87z"/>
    <path class="fil0" d="M18230.96 5007.41l0 -3583.18 841.42 0 0 3583.18 -837.23 0 -4.19 0zm422.88 -4092.16c-131.39,0 -246.34,-41.11 -344.85,-131.39 -91.37,-80.98 -143.65,-197.33 -143.65,-319.41 0,-1.56 0,-3.42 0,-4.81 0,-127.21 49.33,-233.94 143.65,-324.22 98.51,-90.29 213.46,-135.43 344.85,-135.43 135.43,0 250.38,45.14 344.86,135.43 98.5,90.28 147.84,197.01 147.84,324.22 0,123.17 -49.34,233.93 -147.84,324.22 -94.48,90.28 -205.24,131.39 -344.86,131.39z"/>
    <path class="fil0" d="M16002.22 5077.21c-31.18,1.71 -62.83,2.8 -94.32,2.8 -603.61,0 -1154,-345.79 -1416.02,-889.36 -135.27,-286.99 -205.7,-600.66 -205.7,-917.9 0,-14.12 0.31,-28.85 0.47,-42.82 0,-365.32 69.8,-685.51 209.27,-964.59 139.61,-279.08 336.63,-492.53 591.04,-652.63 261.86,-153.27 560.33,-234.4 863.91,-234.4 15.67,0 31.96,0.16 47.32,0.62 287.3,0 545.9,53.37 771.61,164.13 444.76,203.53 740.28,636.65 767.58,1124.69l-808.53 0.15c-27.15,-165.99 -107.97,-319.1 -229.91,-435.14 -123.17,-114.95 -287.29,-172.34 -492.53,-172.34 -168.32,0 -320.19,45.14 -451.43,139.61 -131.39,90.29 -233.93,221.68 -303.74,394.03 -73.84,176.54 -110.76,381.77 -110.76,623.93 0,246.35 41.11,451.43 110.76,627.96 69.81,172.35 168.32,307.78 299.55,402.25 131.4,94.48 283.27,139.62 459.65,139.62 123.18,0 233.94,-20.48 332.44,-69.81 98.51,-45.14 184.76,-114.95 246.35,-205.23 69.81,-90.29 114.95,-201.05 139.62,-328.41l808.53 -0.16c-23.11,486.8 -311.81,922.09 -751.29,1132.76 -230.37,105.64 -481.68,160.55 -735.47,160.55 -14.58,0 -29.78,-0.46 -44.21,-0.62l-4.19 0.31z"/>
    <path class="fil0" d="M12726.98 3501.1l0 -2076.87 845.45 0 0 3583.18 -820.79 0 0 -636.19 -37.07 0c-82.07,201.05 -213.46,365.33 -398.06,492.54 -184.76,123.17 -410.48,188.79 -677.3,188.79 -20.48,0.93 -41.11,1.55 -61.74,1.55 -418.23,0 -799.69,-240.14 -980.57,-617.41 -100.37,-214.55 -152.49,-449.1 -152.49,-686.3 0,-14.58 0.15,-29.63 0.62,-44.21l-0.16 -2281.95 845.46 0 0 2150.71c0,225.72 61.58,410.47 184.75,541.87 123.18,135.43 287.3,201.05 492.54,201.05 261.86,-3.88 504.64,-139.93 644.41,-361.3 78.03,-123.17 114.95,-275.04 114.95,-455.61l0 0.15z"/>
    <polygon class="fil0" points="6763.19,5007.41 6763.19,229.74 7625.09,229.74 7625.09,4280.78 9730.66,4280.94 9730.66,5007.41 "/>
   </g>
   <g>
    <path class="fil0" d="M3560.26 2532.3c0,140.76 -114.12,254.88 -254.87,254.88 -140.76,0 -254.88,-114.12 -254.88,-254.88l0 -0.18c0,-211.03 -85.56,-402.11 -223.84,-540.41 -138.93,-138.93 -330.07,-224.9 -540.42,-224.93l0 1 -0.17 0c-211.11,0 -402.26,85.59 -540.6,223.93 -138.33,138.34 -223.92,329.49 -223.92,540.59l0 0.18c0,492.45 199.7,938.38 522.49,1261.18 323.45,323.44 769.45,523.54 1261.26,523.58l0 -1 0.17 0c492.57,0 938.58,-199.72 1261.43,-522.56 322.87,-322.85 522.6,-768.85 522.6,-1261.38 0,-408.09 -86.78,-795.15 -242.48,-1143.17 -162.5,-363.21 -399.66,-685.41 -691.29,-946.13 -104.47,-93.47 -113.39,-253.94 -19.91,-358.41 93.47,-104.47 253.95,-113.39 358.41,-19.91 344.79,308.24 624.98,688.74 816.74,1117.36 185.12,413.76 288.29,871.09 288.29,1350.26 0,633.24 -256.81,1206.67 -671.95,1621.78 -415.12,415.11 -988.57,671.92 -1621.84,671.92l-0.17 0 0 -1c-633.86,-0.06 -1207.21,-256.48 -1621.66,-670.93 -415.07,-415.08 -671.85,-988.44 -671.85,-1621.59l0 -0.18c0,-351.81 142.66,-670.38 373.28,-900.99 230.61,-230.62 549.18,-373.29 901,-373.29l0.17 0 0 1.01c352.42,0.06 670.88,142.33 900.82,372.28 230.56,230.57 373.19,549.08 373.19,900.81l0 0.18z"/>
    <path class="fil1" d="M2032.11 2532.3c0,-140.2 113.67,-253.87 253.88,-253.87 140.2,0 253.87,113.67 253.87,253.87 0.03,210.38 86.05,401.57 225.03,540.53 138.35,138.32 329.5,223.9 540.59,223.9 211.11,0 402.26,-85.59 540.6,-223.91 138.33,-138.33 223.93,-329.45 223.93,-540.52l0 -0.18c0,-492.49 -199.7,-938.45 -522.5,-1261.26 -323.43,-323.44 -769.44,-523.54 -1261.26,-523.59l0 1.01 -0.17 0c-492.57,0 -938.6,199.73 -1261.44,522.58 -322.86,322.85 -522.59,768.88 -522.59,1261.44 0,411.12 88.11,801.22 246.43,1152.18 165.08,365.95 405.67,689.91 701.67,951.45 105.02,92.92 114.82,253.4 21.9,358.42 -92.92,105.01 -253.4,114.82 -358.42,21.9 -350.53,-309.73 -634.82,-692.01 -829.11,-1122.69 -187.73,-416.19 -292.23,-877.18 -292.23,-1361.26 0,-633.27 256.81,-1206.72 671.94,-1621.84 415.12,-415.13 988.58,-671.94 1621.85,-671.94l0.17 0 0 1c633.86,0.05 1207.21,256.47 1621.67,670.94 415.07,415.08 671.85,988.47 671.85,1621.66l0 0.18c0,351.77 -142.67,670.34 -373.29,900.93 -230.61,230.59 -549.2,373.26 -901,373.26 -351.78,0 -670.36,-142.65 -900.99,-373.25 -230.01,-229.96 -372.33,-548.48 -372.38,-900.94z"/>
   </g>
  </g>
 </g>
</svg>
