<?xml version="1.0" encoding="UTF-8"?>
<!DOCTYPE svg PUBLIC "-//W3C//DTD SVG 1.1//EN" "http://www.w3.org/Graphics/SVG/1.1/DTD/svg11.dtd">
<!-- Creator: CorelDRAW -->
<svg xmlns="http://www.w3.org/2000/svg" xml:space="preserve" height="50" version="1.1" style="shape-rendering:geometricPrecision; text-rendering:geometricPrecision; image-rendering:optimizeQuality; fill-rule:evenodd; clip-rule:evenodd"
viewBox="0 0 25196.8 5080"
 xmlns:xlink="http://www.w3.org/1999/xlink"
 xmlns:xodm="http://www.corel.com/coreldraw/odm/2003">
 <defs>
  <style type="text/css">
   <![CDATA[
    .fil0 {fill:black;fill-rule:nonzero}
   ]]>
  </style>
 </defs>
 <g id="Layer_x0020_1">
  <metadata id="CorelCorpID_0Corel-Layer"/>
  <g id="_1776606151520">
   <g>
    <path class="fil0" d="M21139.23 2.1l0 810.1 -1741.09 0 0 4261.81 -870.6 0 0 -4261.81 -1777.34 0 0 -810.1 4389.03 0zm195.69 4588.74c61.33,0 114.99,22.08 160.4,66.25 46.03,44.18 69.01,97.08 69.64,158.69 -0.63,41.85 -11.25,80.2 -32.5,114.48 -21.8,34.9 -49.49,62.21 -84.35,81.98 -34.21,20.35 -71.95,30.8 -113.19,30.8 -63.76,0 -118,-22.08 -163.4,-66.26 -45.41,-44.17 -67.86,-97.65 -67.28,-161 -0.58,-61.61 21.87,-114.51 67.28,-158.69 45.4,-44.17 99.64,-66.25 163.4,-66.25zm-17254.73 483.17l-3210.13 -3989.91 0 3987.79 -870.53 0 0 -5071.89 1088.18 0 4055.55 5036.03 0.05 -4223.83 -0.35 -810.1 4388.98 0 0 810.1 -3518.08 0 0 1303.2 2829.24 0 0 810.1 -2829.24 0 0 1338.41 3518.08 0 0 810.1 -5451.75 0zm8241.86 -2156.27l570.54 709.38 -1169.08 1452.88 -1142.53 0 1741.07 -2162.26zm-598.54 -2913.52l1472.97 1829.31 1468.38 -1823.67 1139.35 -1.77 -2037.32 2533.83 2040.58 2534.21 -1142.61 0 -4080.62 -5071.91 1139.27 0zm11097.24 2902.18l385.78 0 0 1486.23c-0.58,136.58 -30.14,253.42 -87.87,351.65 -58.39,98.23 -139.23,173.21 -243.04,226.11 -103.22,52.3 -224.16,79.05 -361.58,79.05 -125.68,0 -238.29,-22.68 -338.59,-66.85 -100.27,-44.18 -179.89,-110.43 -238.27,-197.63 -59.04,-87.19 -87.95,-195.87 -87.95,-326.07l386.41 0c0.58,56.97 13.56,106.35 38.3,147.63 24.76,41.27 58.97,72.65 102.66,94.73 44.2,22.1 94.98,33.15 152.14,33.15 61.97,0 115.06,-12.8 158.1,-38.95 43.04,-25.58 76.1,-63.93 99.12,-115.08 22.38,-50.56 34.21,-113.34 34.79,-187.74l0 -1486.23zm1973.03 581.23c-9.39,-90.08 -50.71,-160.43 -122.65,-210.41 -72.58,-50.56 -166.35,-75.56 -281.39,-75.56 -80.79,0 -150.37,12.21 -208.18,36.03 -57.81,24.43 -102.64,56.96 -133.35,98.23 -30.62,41.28 -45.98,88.36 -47.19,141.26 0,44.17 10.62,82.53 31.27,114.5 20.66,32.54 48.36,59.86 84.35,81.96 35.38,22.65 74.9,41.25 118,56.38 43.62,15.1 87.3,27.9 130.91,38.35l201.13 49.41c80.84,18.6 159.32,43.6 234.21,75.55 74.88,31.4 142.74,71.5 202.28,119.75 59.61,48.23 106.8,106.36 141.6,174.37 34.79,68 52.5,147.63 52.5,239.46 0,123.81 -31.85,232.51 -96.19,326.67 -64.26,93.58 -156.88,166.81 -278.38,219.71 -120.94,52.3 -267.2,79.05 -439.44,79.05 -166.33,0 -311.45,-25.58 -433.52,-76.73 -122.68,-50.55 -218.28,-124.98 -287.29,-222.61 -69.01,-97.65 -106.16,-216.81 -111.48,-356.89l382.27 0c5.3,73.23 28.9,134.28 68.99,183.68 40.68,48.83 93.76,84.86 158.68,109.26 65.47,23.85 138.57,36.05 219.41,36.05 84.36,0 158.69,-12.8 222.95,-37.78 63.69,-25 113.84,-59.88 149.85,-105.2 36.57,-44.76 54.87,-97.66 55.45,-158.11 -0.58,-55.21 -17.15,-101.13 -49,-137.18 -32.42,-36.03 -77.25,-66.26 -134.5,-90.66 -57.74,-24.4 -125.01,-46.5 -201.7,-65.68l-244.18 -61.62c-176.39,-44.76 -316.19,-112.76 -418.25,-204.02 -102.58,-91.25 -153.36,-212.14 -153.36,-363.84 0,-124.39 34.2,-233.67 103.29,-327.25 68.35,-93.58 162.17,-166.23 280.75,-217.96 119.14,-52.31 253.64,-77.9 403.42,-77.9 152.21,0 285.48,25.59 400.54,77.9 114.99,51.73 205.28,123.81 270.72,215.64 65.49,91.83 99.7,197.04 101.48,316.19l-374 0z"/>
   </g>
  </g>
 </g>
</svg>
