<?xml version="1.0" encoding="UTF-8"?>
<!DOCTYPE svg PUBLIC "-//W3C//DTD SVG 1.1//EN" "http://www.w3.org/Graphics/SVG/1.1/DTD/svg11.dtd">
<!-- Creator: CorelDRAW -->
<svg xmlns="http://www.w3.org/2000/svg" xml:space="preserve" width="356.768mm" height="50.8mm" version="1.1" style="shape-rendering:geometricPrecision; text-rendering:geometricPrecision; image-rendering:optimizeQuality; fill-rule:evenodd; clip-rule:evenodd"
viewBox="0 0 35676.84 5080"
 xmlns:xlink="http://www.w3.org/1999/xlink"
 xmlns:xodm="http://www.corel.com/coreldraw/odm/2003"
 enable-background="new 0 0 240 90">
 <defs>
  <style type="text/css">
   <![CDATA[
    .fil1 {fill:black;fill-rule:nonzero}
    .fil0 {fill:white;fill-rule:nonzero}
   ]]>
  </style>
 </defs>
 <g id="Layer_x0020_1">
  <metadata id="CorelCorpID_0Corel-Layer"/>
  <path class="fil0" d="M2943.42 100.14c-213.51,-33.73 -438.27,-44.94 -651.78,-11.26 -123.59,22.47 -247.23,78.66 -348.35,134.85 -348.36,-112.38 -741.69,-179.78 -1101.26,-112.38 -258.44,44.93 -505.67,202.29 -640.52,438.27 -168.57,280.95 -202.29,618.05 -179.78,943.93 44.94,359.61 134.85,719.18 235.98,1067.54 89.91,303.41 191.03,606.83 359.6,876.53 89.92,146.1 224.77,303.42 404.55,348.35 146.1,33.73 292.16,-11.25 404.54,-101.12 56.19,56.19 123.6,101.12 202.3,123.59 213.5,78.66 449.48,78.66 662.98,-11.25 11.26,292.16 0,595.58 112.39,865.28 44.93,134.85 112.38,258.44 235.97,337.14 134.85,89.91 292.16,101.13 449.48,78.66 134.85,-22.47 280.95,-67.45 393.29,-134.85 123.59,-78.66 224.76,-191.04 280.95,-325.89 134.85,-303.42 146.1,-629.3 157.32,-955.19 314.63,22.47 640.51,-56.19 876.53,-269.7 89.91,-78.66 168.57,-202.29 134.85,-325.88 -33.72,-112.38 -157.32,-191.04 -269.7,-179.79 -123.59,11.26 -235.97,44.94 -359.61,44.94 269.7,-471.99 483.21,-977.66 573.12,-1505.8 33.72,-224.76 67.44,-449.48 0,-674.24 -33.72,-123.6 -123.59,-224.76 -213.51,-314.63 -202.29,-202.3 -483.2,-337.15 -764.15,-393.29 -325.89,-67.45 -651.78,-33.73 -955.19,56.19zm235.97 224.72c280.95,-67.45 595.58,-56.2 865.28,44.93 191.04,67.45 359.61,202.29 483.2,359.61 67.45,78.66 67.45,179.78 67.45,269.7 0,224.76 -44.94,438.26 -101.13,662.98 -112.38,393.29 -269.69,775.37 -483.2,1123.72 -22.47,33.73 -44.94,67.45 -67.45,101.13 0,-11.26 -11.25,-33.72 -11.25,-33.72 22.47,-67.45 67.44,-134.85 78.66,-202.3 56.19,-202.29 11.25,-415.8 -11.26,-618.05 -22.47,-191.04 44.94,-382.07 44.94,-573.11 11.25,-89.92 -33.73,-179.79 -67.45,-269.7 -134.85,-292.16 -337.14,-550.65 -606.84,-730.43 -44.85,-56.06 -123.51,-89.79 -190.95,-134.76zm-786.62 22.51c348.35,-44.94 719.17,56.19 1000.13,269.69 224.76,179.79 415.8,427.01 505.67,707.97 -157.32,-0.05 -348.32,-11.26 -483.21,101.12 -123.59,101.13 -134.84,269.7 -112.38,415.8 67.45,348.36 269.7,640.52 415.8,943.94 33.73,78.66 89.92,134.85 146.11,202.29 -67.45,33.73 -123.6,56.19 -157.32,123.6 -56.19,101.12 -33.72,213.5 -56.19,325.88 -33.72,303.42 -67.45,606.84 -112.38,910.22 -22.47,146.1 -89.91,303.42 -224.76,370.82 -134.85,67.45 -303.42,112.38 -460.74,89.91 -146.1,-22.46 -247.23,-168.57 -280.95,-303.42 -33.72,-112.38 -33.72,-235.97 -44.93,-348.35 -11.26,-280.95 -11.26,-561.86 -11.26,-842.81 11.26,-112.38 -44.93,-224.76 -146.1,-280.95 -44.94,-22.47 -101.13,-33.73 -157.32,-33.73 44.94,-202.29 168.57,-382.07 213.51,-595.58 56.19,-258.44 22.47,-516.93 -33.72,-775.37 -22.47,-123.59 -123.6,-235.97 -247.23,-269.69 -202.3,-44.94 -393.29,22.46 -573.12,112.38 22.47,-280.95 101.13,-573.12 269.7,-809.09 134.93,-168.57 337.18,-280.95 550.69,-314.63zm-1494.55 22.46c314.64,-56.19 629.31,0 932.69,89.92 -134.85,146.1 -235.98,314.63 -292.17,505.67 -78.66,247.23 -112.38,516.92 -101.12,786.62 11.25,191.04 11.25,370.82 -22.47,561.86 -33.72,235.97 67.44,483.2 247.23,651.77 -123.59,146.11 -247.23,280.95 -370.82,427.02 -56.19,67.44 -123.6,134.84 -213.51,112.38 -101.13,-33.73 -168.57,-123.6 -224.76,-213.51 -157.32,-247.23 -247.23,-528.14 -337.14,-809.09 -101.13,-325.89 -179.79,-662.99 -224.76,-1011.38 -22.47,-258.44 -11.26,-539.4 123.59,-764.16 101.17,-179.78 280.95,-292.16 483.24,-337.1zm2618.31 1157.45c112.38,-78.66 269.7,-67.45 393.29,-56.19 -11.25,179.78 -67.44,359.61 -44.93,550.64 22.46,224.77 78.65,471.99 -22.47,696.71 -146.1,-292.16 -337.14,-561.86 -393.29,-887.74 -11.26,-101.17 -11.26,-224.77 67.4,-303.42zm44.94 44.93c-33.73,33.72 0,78.66 33.72,89.92 78.66,44.93 191.04,-22.47 191.04,-112.39 -67.45,-22.46 -157.32,-22.46 -224.76,22.47zm-1989 78.66c146.1,-89.91 314.63,-168.57 483.2,-157.32 89.91,0 168.57,67.45 191.04,157.32 78.65,314.63 101.12,662.99 -44.94,966.41 -56.19,112.38 -101.12,235.97 -134.85,359.61 -258.44,0 -471.99,-213.51 -516.92,-449.48 -33.73,-134.85 11.25,-269.7 11.25,-404.55 22.43,-168.57 11.22,-314.67 11.22,-471.99zm404.54 -67.4c-22.47,11.25 -44.94,22.46 -44.94,44.93 11.26,89.92 134.85,146.11 213.51,89.92 33.72,-22.47 67.45,-67.45 33.72,-101.13 -56.23,-44.98 -134.89,-56.19 -202.29,-33.72zm1876.62 1584.45c33.72,-22.46 89.91,-56.19 134.85,-22.46 179.78,101.12 393.29,44.93 595.58,22.46 -123.59,112.38 -280.95,168.57 -449.48,191.04 -112.38,11.26 -224.76,22.47 -325.88,-22.47 0,-56.19 0,-123.63 44.93,-168.57zm-1854.15 224.77c101.12,-56.2 146.1,-179.79 247.23,-247.23 101.12,-11.26 191.04,146.1 101.12,224.76 -157.31,213.5 -483.2,258.44 -707.96,134.85 112.38,-44.98 247.23,-44.98 359.61,-112.38z"/>
  <path class="fil0" d="M3561.47 1572.21c67.44,-44.93 157.31,-44.93 224.76,-22.47 0,89.92 -112.38,157.32 -191.04,112.39 -22.47,-11.26 -67.45,-56.2 -33.72,-89.92z"/>
  <path class="fil0" d="M1977.01 1583.47c67.45,-22.47 146.1,-11.26 202.29,33.72 33.73,33.72 0,89.91 -33.72,101.13 -78.66,56.19 -202.29,0 -213.51,-89.92 -0.04,-22.47 22.47,-44.93 44.94,-44.93z"/>
  <path class="fil1" d="M2943.42 100.14c303.41,-78.66 629.3,-112.38 943.93,-56.19 280.96,44.93 550.65,191.03 764.16,393.29 89.91,89.91 179.78,191.03 213.5,314.63 67.45,224.76 33.73,449.48 0,674.24 -101.12,528.14 -303.42,1033.85 -573.11,1505.8 123.59,0 235.97,-33.73 359.61,-44.94 112.38,-11.25 247.23,67.45 269.69,179.79 33.73,123.59 -44.93,247.22 -134.84,325.88 -247.23,213.55 -584.37,280.95 -887.75,269.74 -22.47,325.89 -22.47,651.78 -157.32,955.19 -67.44,134.85 -157.31,247.23 -280.95,325.89 -123.59,78.66 -258.44,112.38 -393.29,134.85 -146.1,22.47 -314.63,11.25 -449.48,-78.66 -123.59,-78.66 -191.04,-202.29 -235.97,-337.14 -101.13,-280.95 -89.92,-573.12 -112.38,-865.28 -213.51,89.91 -449.48,89.91 -662.99,11.26 -78.66,-22.47 -146.1,-67.45 -202.29,-123.6 -112.38,89.91 -258.44,134.85 -404.55,101.13 -179.78,-44.94 -303.42,-202.3 -404.54,-348.36 -168.57,-269.69 -269.7,-573.11 -359.61,-876.53 -101.13,-348.36 -191.04,-696.71 -235.98,-1067.53 -22.46,-325.89 0,-662.99 179.79,-943.94 134.85,-224.76 382.07,-382.08 640.52,-438.27 370.82,-78.66 752.9,0 1101.25,101.13 112.38,-56.19 224.76,-112.38 348.35,-134.85 235.98,-33.72 460.74,-11.26 674.25,22.47zm-11.26 134.84c-22.47,11.26 -56.19,-11.25 -78.66,-11.25 -303.42,-67.45 -640.52,-33.72 -899,134.85 -314.63,-112.38 -651.77,-179.79 -988.87,-146.11 -247.23,22.47 -505.67,146.11 -640.52,348.36 -179.79,269.7 -202.3,606.84 -179.79,910.21 56.19,415.8 157.32,820.35 280.96,1213.64 89.91,247.23 179.78,494.46 325.88,707.96 78.66,101.13 179.79,213.51 314.63,224.76 123.6,11.26 224.77,-56.19 303.42,-146.1 134.85,-157.32 258.45,-303.42 393.29,-449.48 89.92,44.94 191.04,67.45 280.96,78.66 -56.19,67.44 -101.13,146.1 -179.79,168.57 -112.38,44.93 -247.23,33.72 -348.35,112.38 -56.19,44.94 -67.45,134.85 -11.26,179.78 89.92,89.92 235.98,112.38 359.61,123.6 179.79,11.25 359.61,-44.94 494.46,-168.57 0,280.95 0,573.11 33.72,854.02 11.26,168.57 89.92,337.14 213.51,438.27 112.38,101.12 292.16,123.59 438.27,101.12 146.1,-33.72 303.42,-78.65 415.8,-168.57 123.59,-112.38 179.78,-269.69 202.29,-427.01 44.94,-280.95 78.66,-561.86 112.38,-854.02 314.63,56.19 674.24,-11.26 910.22,-235.98 44.93,-44.93 101.12,-134.85 44.93,-191.04 -44.93,-56.19 -134.85,-44.93 -202.29,-33.72 -157.32,33.72 -337.14,67.45 -494.46,-11.25 280.95,-449.48 505.67,-932.69 629.31,-1449.61 44.93,-191.04 78.65,-393.29 78.65,-595.59 -11.25,-112.38 -22.46,-235.97 -89.91,-325.88 -168.57,-224.76 -415.8,-382.08 -685.5,-460.74 -325.93,-44.89 -696.75,-22.38 -1033.89,78.74z"/>
  <path class="fil1" d="M6137.15 3939.77l0 -3887.48 1531.83 0c292.12,0 543.27,52.54 755.23,157.63 211.08,105.09 374.06,253.83 488.06,446.2 113.1,192.37 170.1,418.58 170.1,679.53 0,259.16 -57,485.37 -172.78,676.85 -115.78,192.37 -280.54,342 -493.39,447.98 -212.86,105.98 -466.68,159.42 -760.58,159.42l-1054.47 0 0 -667.96 994.8 0c146.06,0 270.75,-25.82 374.06,-75.7 103.31,-50.76 182.57,-122.9 237.79,-215.52 54.32,-93.52 81.93,-201.28 81.93,-325.07 0,-126.47 -27.61,-236.01 -81.93,-325.96 -55.22,-90.85 -134.48,-161.2 -237.79,-211.08 -103.31,-50.76 -228,-75.7 -374.06,-75.7l-658.15 0 0 3216.86 -800.65 0zm4542.96 62.34c-282.32,0 -528.12,-60.56 -738.31,-182.57 -211.07,-121.12 -374.94,-291.23 -492.5,-508.54 -116.67,-217.3 -175.45,-471.13 -175.45,-762.35 0,-292.12 58.78,-546.83 175.45,-765.03 117.56,-219.09 281.43,-388.3 492.5,-510.32 210.19,-122.01 455.99,-182.57 738.31,-182.57 281.43,0 527.24,60.56 738.31,182.57 210.19,122.02 374.06,291.23 491.62,510.32 117.56,218.2 176.34,472.91 176.34,765.03 0,291.22 -58.78,545.05 -176.34,762.35 -117.56,217.31 -281.43,387.42 -491.62,508.54 -211.07,122.01 -456.88,182.57 -738.31,182.57zm0 -623.42c128.25,0 239.58,-33.84 332.2,-101.53 93.51,-67.68 165.65,-163.87 216.42,-288.55 51.65,-124.69 77.48,-270.75 77.48,-439.96 0,-171.89 -25.83,-319.73 -77.48,-444.41 -50.77,-124.69 -122.91,-220.87 -216.42,-288.56 -92.62,-67.68 -203.95,-101.53 -332.2,-101.53 -127.35,0 -237.79,33.85 -331.3,101.53 -94.4,67.69 -166.54,163.87 -218.2,288.56 -51.65,124.68 -76.59,272.52 -76.59,444.41 0,169.21 24.94,315.27 76.59,439.96 51.66,124.68 123.8,220.87 218.2,288.55 93.51,67.69 203.95,101.53 331.3,101.53zm3002.23 626.09c-236.01,0 -447.08,-35.62 -632.33,-107.76 -185.24,-72.14 -333.97,-177.23 -446.19,-313.49 -112.22,-136.26 -178.12,-301.03 -196.82,-494.29l748.99 -28.5c18.71,122.91 73.03,219.09 161.2,286.78 89.06,67.68 209.29,101.53 360.7,101.53 144.27,0 257.38,-27.61 340.21,-81.94 82.82,-55.22 123.79,-124.68 123.79,-210.18 0,-73.03 -31.17,-132.7 -92.62,-179.01 -61.45,-45.42 -150.51,-80.16 -267.18,-102.42l-488.05 -97.08c-269.86,-53.43 -473.8,-148.73 -613.63,-284.1 -138.93,-135.37 -208.4,-309.93 -208.4,-521.89 0,-177.23 48.09,-332.2 145.17,-463.12 96.18,-130.92 232.45,-233.33 409.68,-305.47 176.34,-72.14 384.74,-107.77 624.31,-107.77 236.9,0 442.63,36.52 618.97,109.55 175.45,73.03 313.49,176.34 414.13,309.93 101.53,134.48 157.64,293.01 170.1,477.36l-707.13 26.72c-8.91,-107.76 -56.11,-196.82 -140.72,-268.07 -85.5,-70.36 -196.82,-105.09 -333.98,-105.09 -132.7,0 -237.79,27.61 -316.16,81.93 -78.37,55.22 -117.56,123.8 -117.56,207.51 0,73.03 30.28,132.7 89.06,179.01 58.78,45.42 144.28,81.05 255.6,105.09l524.57 102.42c277.87,55.22 483.6,145.17 617.19,269.86 132.7,123.79 199.49,288.55 199.49,491.61 0,186.14 -52.54,348.23 -157.64,485.38 -105.09,137.15 -252.04,244.02 -439.06,320.62 -186.14,76.59 -401.66,114.88 -645.69,114.88zm3274.75 -2857.05l0 602.94 -1791.9 0 0 -602.94 1791.9 0zm-1333.24 -738.31l773.05 0 0 2679.82c0,91.74 18.7,156.75 56.99,194.16 38.3,37.4 108.66,56.1 211.08,56.1 40.08,0 89.95,0 148.73,-0.89 59.67,-0.89 105.09,-2.67 136.26,-4.45l23.16 600.27c-54.33,5.34 -122.91,8.9 -207.51,10.68 -84.61,1.78 -168.33,2.68 -252.04,2.68 -300.14,0 -523.68,-62.35 -669.74,-185.25 -146.95,-123.79 -219.98,-312.6 -219.98,-566.42l0 -2786.7zm3003.11 4662.31c-255.6,0 -473.8,-35.63 -655.48,-106.88 -182.58,-71.24 -325.96,-170.99 -431.05,-298.35 -105.09,-128.24 -172.78,-276.08 -202.17,-445.3l725.84 -40.97c18.7,64.13 53.44,121.12 104.2,170.11 49.88,49.87 114,88.17 191.48,114.89 77.48,27.6 166.54,40.96 267.18,40.96 191.48,0 339.32,-49.87 443.52,-150.51 105.09,-99.75 156.75,-249.37 156.75,-447.08l0 -446.19 -15.14 0c-48.98,100.63 -112.22,186.13 -190.59,256.49 -78.37,71.25 -169.21,123.79 -272.52,159.42 -104.21,35.62 -219.98,53.43 -349.12,53.43 -234.23,0 -441.74,-57.88 -620.75,-173.66 -179.01,-115.78 -318.84,-278.76 -419.48,-488.94 -101.52,-210.19 -151.4,-457.77 -151.4,-740.99 0,-288.55 50.77,-540.59 152.29,-755.23 101.53,-214.63 242.25,-381.18 421.26,-499.63 179.01,-118.45 383.85,-177.23 613.63,-177.23 130.02,0 246.69,18.71 350.89,57 103.31,38.3 195.05,92.62 275.2,162.98 80.15,70.36 146.06,154.97 197.71,252.04l10.69 0 0 -420.36 762.36 0 0 2702.98c0,285.88 -57.89,517.44 -173.67,697.34 -115.78,179.01 -276.09,310.82 -480.04,396.32 -204.83,85.5 -441.73,127.36 -711.59,127.36zm-17.81 -1750.04c130.03,0 244.03,-32.95 340.21,-97.97 97.08,-65.01 171,-158.52 223.54,-279.64 51.66,-120.24 78.38,-262.73 78.38,-426.6 0,-162.98 -26.72,-305.48 -78.38,-426.6 -52.54,-120.23 -126.46,-214.64 -223.54,-281.43 -96.18,-66.8 -210.18,-100.64 -340.21,-100.64 -127.36,0 -236.9,32.06 -330.41,97.07 -92.63,64.13 -163.87,156.75 -213.75,277.87 -49.87,120.23 -73.92,265.4 -73.92,433.73 0,169.21 24.05,313.49 73.92,433.72 49.88,119.34 121.12,211.07 213.75,275.2 93.51,63.23 203.05,95.29 330.41,95.29zm1953.98 618.08l0 -2792.04 743.66 0 0 480.03 13.36 0c50.76,-170.1 131.81,-296.57 244.02,-379.39 112.22,-82.83 256.5,-123.8 434.62,-123.8 44.53,0 87.28,0.89 126.46,3.57 39.19,2.67 73.92,6.23 105.09,8.9l0 663.5c-29.39,-3.56 -75.7,-8.01 -138.93,-12.47 -64.12,-3.56 -127.36,-6.23 -192.37,-6.23 -107.76,0 -204.84,24.04 -290.34,73.03 -86.39,48.98 -154.07,119.34 -202.16,212.85 -48.99,92.62 -73.03,207.51 -73.03,342.88l0 1529.17 -770.38 0zm3256.05 62.34c-283.22,0 -529.91,-61.45 -738.31,-185.24 -208.41,-122.91 -370.5,-293.9 -483.6,-512.1 -114,-218.2 -171,-470.24 -171,-756.12 0,-285 57.89,-537.04 172.78,-756.12 115.78,-219.09 276.09,-390.98 480.03,-515.66 204.84,-123.8 441.74,-186.14 711.6,-186.14 199.49,0 382.06,33.84 547.72,101.53 165.65,67.68 308.15,164.76 429.27,291.23 121.12,125.57 214.63,276.97 280.54,453.31 65.9,177.23 98.85,374.95 98.85,594.04l0 208.4 -2436.69 0 0 -489.84 2063.53 0 -349.11 119.35c0,-142.5 -24.94,-265.4 -74.82,-367.82 -48.98,-102.42 -120.23,-181.69 -212.85,-238.69 -91.73,-56.1 -203.06,-84.6 -333.98,-84.6 -128.24,0 -239.57,28.5 -332.19,84.6 -93.51,57 -164.76,135.38 -215.53,237.8 -49.87,101.52 -75.7,221.76 -75.7,361.58l0 338.43c0,147.84 26.72,276.09 78.38,383.85 52.54,107.76 128.24,190.59 227.1,249.37 98.86,57.89 217.31,87.28 354.46,87.28 97.97,0 185.24,-14.25 262.73,-41.86 77.48,-27.61 142.49,-68.58 195.93,-121.12 52.55,-53.44 91.73,-115.78 115.78,-187.03l701.79 32.06c-36.51,177.23 -114.88,333.09 -235.12,467.57 -119.34,135.37 -270.74,240.46 -453.31,317.05 -182.58,76.6 -385.63,114.89 -608.28,114.89zm3245.35 -2.67c-326.85,0 -607.39,-50.76 -840.72,-153.18 -234.23,-103.31 -414.14,-252.93 -538.82,-450.65 -125.58,-197.71 -188.81,-436.39 -190.59,-716.04l774.83 0c3.56,138.93 38.29,257.38 104.2,356.24 65.9,97.96 158.52,173.67 276.97,225.32 117.56,52.55 257.39,78.37 416.81,78.37 147.84,0 276.97,-20.48 386.52,-62.34 109.54,-41.86 195.04,-99.75 255.6,-174.56 61.45,-74.81 91.73,-162.09 91.73,-260.94 0,-85.5 -24.93,-159.42 -73.03,-220.87 -48.98,-61.46 -124.68,-114.89 -226.21,-160.31 -101.53,-45.42 -232.45,-86.39 -392.76,-122.91l-412.34 -90.84c-372.28,-83.71 -651.93,-214.63 -839.84,-391.86 -187.92,-177.23 -281.43,-405.23 -281.43,-683.1 0,-236.9 61.45,-443.52 185.24,-619.86 122.9,-176.33 295.68,-314.38 517.44,-412.34 221.76,-97.97 478.26,-147.84 768.59,-147.84 297.46,0 554.85,50.76 771.26,150.51 216.42,99.75 384.75,242.24 504.98,426.6 119.34,184.35 183.46,403.44 189.7,657.26l-753.45 0c-14.25,-179.01 -83.72,-318.83 -210.19,-420.36 -126.46,-100.64 -293.01,-151.41 -499.63,-151.41 -131.8,0 -248.47,20.49 -350,60.57 -100.64,40.07 -179.01,95.29 -234.23,166.54 -56.11,71.25 -83.72,154.07 -83.72,248.48 0,82.82 24.05,154.96 71.25,213.74 48.09,58.78 121.12,110.44 219.98,152.29 97.97,42.75 220.87,81.05 368.71,114l367.82 83.72c196.82,40.97 369.6,94.4 518.33,158.53 148.73,64.12 272.52,141.6 373.16,232.44 99.75,90.84 174.56,195.05 224.43,313.5 48.99,117.56 73.92,252.04 73.92,401.66 0,246.69 -61.45,460.44 -185.24,640.34 -123.8,179.9 -299.24,317.95 -528.13,415.02 -228.88,96.19 -502.3,144.28 -821.14,144.28zm3439.51 -1395.57l678.64 0 359.8 462.22 320.62 374.94 659.94 822.03 -732.97 0 -438.17 -553.07 -243.14 -308.14 -604.72 -797.98zm297.46 1395.57c-348.22,0 -659.93,-80.15 -936.91,-242.24 -276.98,-162.09 -494.29,-392.76 -653.7,-691.11 -159.42,-299.24 -238.69,-655.49 -238.69,-1067.84 0,-415.91 79.27,-773.04 238.69,-1073.17 159.41,-300.14 376.72,-530.8 653.7,-692 276.98,-160.31 588.69,-241.35 936.91,-241.35 347.34,0 659.05,81.04 934.25,241.35 274.3,161.2 491.61,391.86 651.92,692 160.31,300.13 240.46,657.26 240.46,1073.17 0,414.14 -80.15,770.38 -240.46,1069.62 -160.31,299.24 -377.62,529.91 -651.92,690.22 -275.2,161.2 -586.91,241.35 -934.25,241.35zm0 -707.14c199.5,0 376.73,-49.87 529.91,-150.51 152.3,-101.53 272.53,-248.48 359.81,-441.74 87.27,-192.37 130.02,-426.6 130.02,-701.8 0,-276.08 -42.75,-511.2 -130.02,-705.35 -87.28,-194.15 -207.51,-341.99 -359.81,-442.63 -153.18,-100.64 -330.41,-151.41 -529.91,-151.41 -200.38,0 -377.61,50.77 -530.8,151.41 -154.07,100.64 -274.3,248.48 -361.58,442.63 -87.28,194.15 -130.92,429.27 -130.92,705.35 0,275.2 43.64,509.43 130.92,701.8 87.28,193.26 207.51,340.21 361.58,441.74 153.19,100.64 330.42,150.51 530.8,150.51zm2319.14 647.47l0 -3887.48 800.65 0 0 3206.17 1748.25 0 0 681.31 -2548.9 0z"/>
 </g>
</svg>
