<?xml version="1.0" encoding="UTF-8"?>
<!DOCTYPE svg PUBLIC "-//W3C//DTD SVG 1.1//EN" "http://www.w3.org/Graphics/SVG/1.1/DTD/svg11.dtd">
<!-- Creator: CorelDRAW -->
<svg xmlns="http://www.w3.org/2000/svg" xml:space="preserve" height="50" version="1.1" style="shape-rendering:geometricPrecision; text-rendering:geometricPrecision; image-rendering:optimizeQuality; fill-rule:evenodd; clip-rule:evenodd"
viewBox="0 0 24503.38 5080"
 xmlns:xlink="http://www.w3.org/1999/xlink"
 xmlns:xodm="http://www.corel.com/coreldraw/odm/2003"
 data-name="Layer 1">
 <defs>
  <style type="text/css">
   <![CDATA[
    .fil0 {fill:black;fill-rule:nonzero}
   ]]>
  </style>
 </defs>
 <g id="Layer_x0020_1">
  <metadata id="CorelCorpID_0Corel-Layer"/>
  <g id="_1776601755264">
   <g>
    <path class="fil0" d="M2057.07 17.15c31.08,-11.34 63.98,-17.15 97.06,-17.15 111.39,0 212.45,65.36 258.14,166.9 581.3,1235.47 1160.98,2471.64 1739.04,3708.5 70.96,152.53 -19.18,353.12 -183.26,395.87 -885.73,264.23 -1772.16,528 -2659.29,791.3 -32.23,11.52 -66.3,17.43 -100.56,17.43 -77.85,0 -152.64,-30.39 -208.41,-84.67 -48.6,-60.94 -93.27,-125.6 -132.61,-192.81 -274.9,-428.58 -549.7,-857.25 -824.4,-1286.03 -33.33,-48.04 -51.27,-105.22 -51.27,-163.74 0,-53.79 15.17,-106.6 43.66,-152.19 622.58,-1014.68 1245.7,-2028.9 1869.38,-3042.67 36.97,-59.16 84.12,-117.41 152.53,-140.74l-0.01 0zm122.71 673.66c-270.85,1296.64 -539.54,2593.58 -806.08,3890.84 -31.2,81.34 64.25,152.76 138.66,114.16 747.16,-221.86 1494.54,-442.56 2241.7,-667.19 48.71,-10.42 83.55,-53.47 83.55,-103.3 0,-18.57 -4.91,-36.87 -14.22,-52.94 -497.79,-1078.78 -1008.99,-2152.02 -1506.78,-3230.81 -49.46,-21.49 -129.19,-17.56 -135.89,49.69l-0.94 -0.45z"/>
   </g>
   <path class="fil0" d="M11474.01 4773.57l887.85 0 0 -3253.3 -887.85 0 0 3253.3zm-39.03 -4094.32c0,-288.8 161.04,-433.34 483.15,-433.61 322.1,-0.25 483.03,144.28 482.76,433.61 0,137.63 -40.19,244.82 -120.58,321.57 -80.41,76.76 -201.12,115.14 -362.18,115.14 -321.33,0 -481.85,-145.57 -481.59,-436.71l-1.56 0zm12176.45 2587.1l-343.44 11.71c-258.1,7.8 -450.25,54.37 -576.43,139.72 -126.19,85.33 -189.16,215.42 -188.89,390.26 0,250.3 143.09,375.44 429.29,375.44 205.55,0 369.97,-59.19 493.3,-177.58 123.33,-118.37 185,-275.52 185,-471.43l1.17 -268.12zm261.86 1507.61l-171.72 -442.58 -23.41 0.02c-149.6,188.63 -303.37,318.71 -461.29,390.27 -157.94,71.55 -364,107.97 -618.19,109.27 -312.22,0 -558.23,-89.24 -738.01,-267.72 -179.79,-178.48 -269.41,-432.68 -268.9,-762.6 0,-345 120.72,-599.57 362.17,-763.76 241.45,-164.17 605.71,-255.22 1092.77,-273.18l564.72 -17.56 0 -142.06c0,-329.4 -169.12,-494.22 -507.36,-494.48 -260.18,0 -565.76,78.06 -916.75,234.16l-293.87 -599.46c374.94,-192.92 790.87,-294.07 1212.63,-294.07 10.99,0 22.3,0.32 32.96,0.32 436.42,-0.07 771.07,94.98 1003.93,285.17 232.87,190.19 350.47,479.65 352.82,868.36l0 2169.9 -622.5 0zm-4873.31 0l-884.74 0 0 -1900.22c0,-234.17 -39.03,-410.32 -117.08,-528.44 -78.05,-118.12 -201.77,-176.78 -371.14,-176 -226.88,0 -391.72,83.39 -494.48,250.15 -102.77,166.79 -154.16,441.41 -154.16,823.87l0 1530.64 -888.65 0 0 -3253.69 678.69 0 117.09 416.42 49.55 0c89.2,-151.36 220.67,-273.58 378.16,-351.27 168.92,-83.2 355.47,-126.64 543.98,-126.64 7.81,0 16.24,0.14 23.89,0.29 486.79,-0.04 816.57,159.04 989.32,477.23l78.06 0c89.98,-153.34 224.61,-275.93 385.55,-351.25 173.12,-82.19 362.46,-125.04 554.16,-125.04 6.77,0 14.17,0.17 20.79,0.17 368.38,0 647.15,94.58 836.31,283.72 189.14,189.15 283.72,492.27 283.72,909.33l0 2120.73 -888.25 0 0 -1900.22c0,-234.17 -39.03,-410.32 -117.09,-528.44 -78.06,-117.08 -202.16,-176.01 -371.15,-176.01 -217.51,0 -379.99,78.06 -487.44,234.17 -107.46,156.11 -161.31,402.37 -161.58,738.78l-3.51 1631.72zm-3863.67 -203.72c231.82,-174.84 347.72,-429.03 347.72,-762.58 0.23,-9.84 0.46,-20.15 0.46,-30.11 0,-132.97 -28.02,-264.55 -82.01,-385.94 -61.48,-122.21 -151.63,-228.29 -262.32,-308.7 -118.09,-88.97 -304.23,-184.98 -558.44,-288.01 -286.18,-114.22 -471.05,-200.46 -554.57,-258.76 -84.3,-58.54 -126.45,-127.22 -126.45,-206.84 0,-141.53 131.01,-212.3 393.01,-212.3 0.17,0 0.35,0 0.53,0 146.72,0 292.73,22.61 432.61,66.79 141.58,44.72 293.93,101.94 457.07,171.66l267.72 -640.05c-357.69,-167.46 -748.26,-255.36 -1143.45,-256.02 -411.37,0.02 -729.07,78.97 -953.08,236.91 -224.01,157.93 -336.16,381.56 -336.41,670.87 -0.3,9.27 -0.41,19.03 -0.41,28.43 0,136.81 27.8,272.39 81.56,398.08 58.53,121.82 146.62,227.42 256,306.75 117.1,89.28 300.94,186.36 551.49,291.2 174.32,73.64 313.91,138.69 418.76,195.14 80.52,38.29 155.26,88.31 221.33,148.24 41.11,43.5 64.12,101.21 64.12,161.1 0,3.02 -0.06,6.09 -0.18,9.09 0.02,186.04 -161.03,279.21 -483.13,279.46 -184.28,-3.45 -368.38,-29.9 -546.4,-78.13 -190.96,-46.73 -378.91,-112.93 -557.73,-195.11l0 733.32c150.38,63.56 308.05,111.24 468.24,141.26 184.95,32.02 372.5,48.38 560.06,48.38 14.76,0 31.12,-0.4 45.49,-0.4 462.27,-1.23 809.32,-89.15 1041.14,-263.73l-2.73 0zm-4136.88 -3083.14c-89.82,-17.34 -181.53,-26.39 -273.09,-26.39 -8.88,0 -17.92,0.18 -26.62,0.18 -197.84,0.07 -391.26,58.47 -556.12,167.52 -170.81,110.55 -311.69,262.18 -408.96,440.91l-43.78 0.06 -131.13 -546.38 -672.06 0.01 0 3250.95 887.49 0 0 -1655.91c0,-262.01 79.09,-465.73 237.28,-611.17 158.19,-145.44 379.35,-218.16 663.45,-218.16 6.13,-0.04 12.81,-0.18 19.11,-0.18 81.87,0 163.64,9.83 243.13,29.11l61.3 -830.55zm-4724.23 1034.22l297 0c277.62,0 485.11,-54.77 622.48,-164.3 137.37,-109.54 206.46,-269.15 207.23,-478.86 0,-211.14 -57.76,-367.64 -173.29,-468.33 -115.52,-100.68 -296.21,-151.42 -542.87,-151.42l-410.55 0 0 1262.91zm2037.22 -675.17c0,458.18 -143.1,808.38 -429.29,1050.61 -286.2,242.23 -693.12,363.47 -1220.77,363.73l-387.16 0 0 1513.47 -902.69 0 0 -4253.96 1358.92 0.02c515.94,0 908.29,111.08 1177.05,333.28 268.77,222.2 403.43,553.14 403.94,992.85z"/>
  </g>
 </g>
</svg>
