<?xml version="1.0" encoding="UTF-8"?>
<!DOCTYPE svg PUBLIC "-//W3C//DTD SVG 1.1//EN" "http://www.w3.org/Graphics/SVG/1.1/DTD/svg11.dtd">
<!-- Creator: CorelDRAW -->
<svg xmlns="http://www.w3.org/2000/svg" xml:space="preserve" width="330.124mm" height="50.8mm" version="1.1" style="shape-rendering:geometricPrecision; text-rendering:geometricPrecision; image-rendering:optimizeQuality; fill-rule:evenodd; clip-rule:evenodd"
viewBox="0 0 33012.38 5080"
 xmlns:xlink="http://www.w3.org/1999/xlink"
 xmlns:xodm="http://www.corel.com/coreldraw/odm/2003">
 <defs>
  <style type="text/css">
   <![CDATA[
    .fil0 {fill:black;fill-rule:nonzero}
   ]]>
  </style>
 </defs>
 <g id="Layer_x0020_1">
  <metadata id="CorelCorpID_0Corel-Layer"/>
  <g id="_1776599950304">
   <path class="fil0" d="M4514.61 2412.65c128.47,-128.47 336.79,-128.47 465.26,0 128.47,128.47 128.47,336.79 0,465.26l-2105.73 2105.73c-128.47,128.47 -336.79,128.47 -465.26,0 -128.47,-128.47 -128.47,-336.79 0,-465.26l2105.73 -2105.73zm-421.15 -2316.29c128.47,-128.47 336.79,-128.47 465.26,0 128.47,128.47 128.47,336.79 0,465.26l-4000.87 4000.87c-128.47,128.47 -336.79,128.47 -465.26,0 -128.47,-128.47 -128.47,-336.79 0,-465.26l4000.87 -4000.87z"/>
   <path class="fil0" d="M7664.95 4513.29c-257.61,0 -487.98,-38.89 -690.17,-117.61 -202.19,-78.74 -364.52,-193.46 -487,-342.18 -122.49,-148.73 -194.42,-328.55 -214.83,-539.49l817.51 -31.1c20.41,134.14 79.7,239.12 175.94,312.99 97.21,73.88 228.43,110.83 393.68,110.83 157.48,0 280.93,-30.14 371.33,-89.44 90.4,-60.27 135.12,-136.08 135.12,-229.4 0,-79.71 -34.03,-144.84 -101.09,-195.38 -67.08,-49.58 -164.29,-87.49 -291.62,-111.79l-532.69 -105.96c-294.54,-58.33 -517.14,-162.33 -669.75,-310.09 -151.65,-147.75 -227.46,-338.28 -227.46,-569.63 0,-193.44 52.48,-362.58 158.44,-505.47 104.98,-142.89 253.71,-254.67 447.14,-333.41 192.47,-78.74 419.94,-117.62 681.42,-117.62 258.57,0 483.12,39.86 675.59,119.56 191.49,79.7 342.16,192.47 452.01,338.28 110.81,146.78 172.04,319.8 185.66,521.03l-771.82 29.15c-9.73,-117.62 -61.25,-214.82 -153.59,-292.59 -93.32,-76.8 -214.83,-114.7 -364.52,-114.7 -144.84,0 -259.53,30.13 -345.08,89.42 -85.55,60.27 -128.32,135.13 -128.32,226.5 0,79.71 33.05,144.84 97.21,195.38 64.16,49.58 157.48,88.46 278.99,114.71l572.53 111.78c303.3,60.27 527.84,158.46 673.65,294.54 144.84,135.11 217.75,314.95 217.75,536.58 0,203.16 -57.37,380.07 -172.06,529.77 -114.7,149.69 -275.1,266.35 -479.23,349.94 -203.16,83.6 -438.4,125.4 -704.74,125.4zm2675.12 -1779.85l0 1708.89 -840.84 0 0 -4243.05 837.91 0 0 1982.04 -137.05 0c93.32,-266.35 226.49,-473.4 401.46,-621.15 174.96,-147.76 397.58,-221.63 669.75,-221.63 215.8,0 404.38,45.69 563.8,139.01 159.41,93.3 282.86,228.43 370.35,406.32 86.51,176.91 130.26,391.73 130.26,644.46l0 1914 -839.86 0 0 -1763.33c0,-199.26 -48.61,-351.88 -146.79,-459.78 -97.2,-106.92 -235.23,-160.39 -411.18,-160.39 -117.62,0 -221.62,24.3 -311.06,73.88 -88.45,49.57 -159.42,123.45 -209.96,222.6 -51.52,98.18 -76.79,224.54 -76.79,378.13zm3534.42 1763.33c-199.28,0 -377.17,-34.03 -534.64,-101.09 -156.51,-68.05 -279.96,-169.14 -369.38,-305.23 -90.41,-135.12 -136.09,-304.26 -136.09,-505.49 0,-173.02 32.08,-315.92 94.29,-429.64 63.18,-113.73 148.73,-206.08 259.54,-275.09 109.84,-69.03 236.21,-122.49 378.13,-159.42 142.9,-36.94 291.62,-63.18 447.15,-78.74 184.69,-16.53 331.48,-34.02 440.34,-50.54 108.87,-17.51 187.61,-42.77 236.21,-75.82 48.61,-33.05 72.91,-81.66 72.91,-146.78l0 -16.53c0,-79.72 -19.45,-148.73 -58.33,-205.11 -38.88,-57.35 -95.26,-102.07 -168.16,-134.14 -72.91,-32.08 -162.34,-48.6 -266.35,-48.6 -104.01,0 -196.35,16.52 -276.06,48.6 -79.72,32.07 -142.89,77.76 -189.56,135.12 -46.66,58.31 -75.82,125.39 -86.51,201.21l-789.31 -29.16c23.33,-203.16 91.38,-377.16 205.1,-523.94 113.73,-145.81 268.28,-258.58 464.64,-338.28 195.4,-79.7 425.77,-119.56 692.12,-119.56 197.32,0 376.19,22.35 537.54,68.04 161.36,45.69 299.39,112.75 415.07,200.25 114.71,88.45 202.19,197.32 263.44,326.61 60.27,129.28 90.4,278.01 90.4,447.15l0 2061.74 -817.51 0 0 -427.71 -13.6 0c-53.46,97.21 -119.56,181.77 -199.28,253.71 -79.71,71.93 -175.95,128.31 -289.67,168.17 -112.77,39.86 -246.91,60.27 -402.43,60.27zm233.28 -587.13c135.12,0 251.78,-25.28 351.89,-75.82 99.16,-49.58 175.95,-118.6 229.41,-206.07 52.49,-87.5 79.71,-184.7 79.71,-293.57l0 -310.09c-23.32,13.62 -55.41,26.24 -98.18,38.88 -42.76,11.67 -92.34,23.33 -146.78,34.99 -55.4,11.68 -113.73,22.37 -176.91,33.05 -62.21,10.7 -125.41,20.41 -187.61,30.14 -97.2,14.59 -184.69,37.91 -263.43,69.01 -78.74,32.09 -140.96,74.86 -186.63,128.32 -45.69,54.44 -68.05,122.48 -68.05,204.13 0,71.93 19.44,134.14 58.32,186.64 38.88,51.52 93.32,91.38 163.31,119.56 69.98,27.22 151.64,40.83 244.95,40.83zm3282.66 592.96c-257.61,-0.98 -485.06,-65.14 -680.45,-194.42 -195.38,-129.28 -347.99,-312.03 -456.86,-549.21 -108.88,-237.18 -163.31,-517.13 -163.31,-839.86 0,-320.79 55.41,-599.76 166.22,-835.98 110.82,-236.2 264.4,-419.92 459.79,-550.18 195.38,-130.26 418.96,-194.41 669.75,-194.41 139.97,0 266.34,20.41 380.07,61.23 112.76,40.83 210.94,98.19 295.51,172.06 84.57,73.88 155.52,163.31 212.89,267.31l10.68 0 0 -1639.86 840.84 0 0 4243.05 -829.17 0 0 -472.42 -11.67 0c-54.43,109.84 -125.39,205.11 -209.96,284.81 -85.54,79.71 -185.67,140.96 -300.36,183.72 -115.68,42.77 -243.03,63.18 -383.97,64.16zm225.51 -684.34c143.87,0 268.29,-36.94 373.28,-110.81 104.01,-73.87 185.67,-178.86 243.02,-314.94 58.32,-135.13 87.47,-294.55 87.47,-476.32 0,-182.75 -29.15,-340.22 -87.47,-474.37 -57.35,-134.14 -139.01,-238.15 -243.02,-312.02 -104.99,-73.89 -229.41,-110.82 -373.28,-110.82 -137.05,0 -255.65,35.97 -357.71,107.9 -101.09,71.93 -178.87,174.97 -233.3,309.11 -54.44,134.15 -80.68,293.57 -80.68,480.2 0,187.62 26.24,348.97 80.68,484.09 54.43,134.14 132.21,238.16 233.3,310.09 102.06,71.93 220.66,107.89 357.71,107.89zm3522.75 692.11c-305.23,0 -572.54,-67.06 -800,-200.24 -228.43,-134.15 -405.36,-319.81 -531.73,-557.97 -125.39,-239.13 -188.57,-514.21 -188.57,-828.19 0,-314.95 63.18,-591.98 188.57,-831.12 126.37,-239.13 303.3,-425.75 531.73,-559.9 227.46,-133.18 494.77,-200.24 800,-200.24 195.39,0 376.19,28.18 541.44,85.53 165.25,56.38 310.09,136.09 433.54,239.13 124.43,102.07 224.55,224.55 299.4,367.44 74.84,141.93 121.51,299.39 138.03,472.42l-808.75 31.1c-11.68,-77.76 -33.05,-148.72 -65.14,-211.9 -32.07,-63.18 -73.87,-118.59 -124.41,-163.31 -49.58,-45.69 -108.88,-80.68 -175.95,-105.95 -68.04,-24.31 -142.9,-36.95 -226.49,-36.95 -144.84,0 -267.32,37.92 -367.44,112.77 -101.09,74.85 -177.89,180.8 -232.33,316.89 -54.42,137.06 -80.68,298.43 -80.68,484.09 0,182.74 26.26,342.17 80.68,479.23 54.44,136.09 131.24,242.03 232.33,316.89 100.12,74.85 222.6,112.75 367.44,112.75 83.59,0 158.45,-12.64 224.55,-36.94 67.06,-24.29 124.41,-60.27 173.99,-106.92 49.57,-46.65 90.41,-102.07 122.48,-166.22 32.09,-65.13 55.41,-138.04 70.97,-219.69l811.66 34.03c-14.57,173.03 -59.29,330.49 -134.15,473.39 -73.87,141.91 -173.02,265.38 -298.41,369.38 -125.4,104.98 -271.21,185.66 -437.43,243.99 -166.22,58.33 -347.99,86.51 -545.33,86.51zm2734.41 -1776.93l0 1708.89 -840.84 0 0 -3047.41 820.43 0 2.9 786.4 -122.47 0c93.32,-266.35 226.49,-473.4 401.46,-621.15 174.97,-147.76 397.58,-221.63 669.76,-221.63 215.79,0 404.37,45.69 563.79,139.01 159.41,93.3 282.86,228.43 370.35,406.32 86.51,176.91 130.26,391.73 130.26,644.46l0 1914 -839.86 0 0 -1763.33c0,-199.26 -48.61,-351.88 -146.78,-459.78 -97.21,-106.92 -235.24,-160.39 -411.19,-160.39 -117.62,0 -221.62,24.3 -311.05,73.88 -88.46,49.57 -159.43,123.45 -209.97,222.6 -51.51,98.18 -76.79,224.54 -76.79,378.13zm4437.46 -2733.44l-1367.69 5080 -734.87 0 1367.68 -5080 734.88 0zm1400.75 4499.68c-212.88,0 -399.52,-46.66 -559.91,-139.98 -160.39,-93.32 -283.85,-228.43 -371.33,-405.35 -87.49,-177.88 -131.23,-391.74 -131.23,-642.53l0 -1916.9 840.84 0 0 1763.31c0,199.28 48.59,351.9 147.74,459.78 98.19,106.94 235.24,160.4 410.23,160.4 117.61,0 220.65,-24.31 310.07,-71.93 89.44,-48.61 159.42,-123.46 210.94,-223.57 51.52,-101.1 76.8,-227.47 76.8,-379.1l0 -1708.89 839.86 0 0 3047.41 -819.45 0 -2.92 -786.4 122.48 0c-93.32,266.35 -227.46,473.4 -402.43,621.15 -174,147.74 -398.55,222.6 -671.69,222.6zm2400.99 -57.35l0 -3047.41 840.84 0 0 3047.41 -840.84 0zm417.99 -3431.37c-137.07,0 -250.8,-42.78 -340.22,-128.32 -90.41,-85.55 -136.09,-191.49 -136.09,-318.84 0,-127.34 45.68,-233.3 136.09,-317.87 89.42,-84.57 203.15,-126.35 340.22,-126.35 136.09,0 250.79,41.78 341.18,126.35 91.38,84.57 137.07,190.53 137.07,317.87 0,127.35 -45.69,233.29 -137.07,318.84 -90.39,85.54 -205.09,128.32 -341.18,128.32z"/>
  </g>
 </g>
</svg>
