<?xml version="1.0" encoding="UTF-8"?>
<!DOCTYPE svg PUBLIC "-//W3C//DTD SVG 1.1//EN" "http://www.w3.org/Graphics/SVG/1.1/DTD/svg11.dtd">
<!-- Creator: CorelDRAW -->
<svg xmlns="http://www.w3.org/2000/svg" xml:space="preserve" height="50" version="1.1" style="shape-rendering:geometricPrecision; text-rendering:geometricPrecision; image-rendering:optimizeQuality; fill-rule:evenodd; clip-rule:evenodd"
viewBox="0 0 44325.54 5080"
 xmlns:xlink="http://www.w3.org/1999/xlink"
 xmlns:xodm="http://www.corel.com/coreldraw/odm/2003">
 <defs>
  <style type="text/css">
   <![CDATA[
    .fil0 {fill:black;fill-rule:nonzero}
   ]]>
  </style>
 </defs>
 <g id="Layer_x0020_1">
  <metadata id="CorelCorpID_0Corel-Layer"/>
  <g id="_1776933862096">
   <path class="fil0" d="M4230.53 0.01c-1128.86,0 -1834.4,564.43 -2116.57,1693.39 423.33,-564.53 917.29,-776.19 1481.73,-635.03 322.03,80.42 552.18,314.2 807.01,572.75 415.01,421.27 895.42,908.88 1944.68,908.88 1128.86,0 1834.4,-564.43 2116.66,-1693.39 -423.33,564.52 -917.29,776.19 -1481.73,635.03 -322.03,-80.43 -552.18,-314.2 -807.01,-572.75 -415.13,-421.28 -895.45,-908.88 -1944.77,-908.88zm-2116.57 2539.99c-1128.86,0 -1834.4,564.43 -2116.66,1693.39 423.33,-564.52 917.2,-776.19 1481.63,-635.03 322.1,80.58 552.19,314.2 807.01,572.75 415.02,421.28 895.52,908.89 1944.68,908.89 1128.96,0 1834.46,-564.44 2116.73,-1693.4 -423.34,564.53 -917.29,776.2 -1481.73,635.03 -322.03,-80.42 -552.18,-314.2 -807.01,-572.69 -415.01,-421.33 -895.42,-908.94 -1944.68,-908.94l0.03 0z"/>
   <path class="fil0" d="M11876 2283.53l-847.73 0 0 1640.9c0,437.57 287.07,430.7 847.73,403.35l0 663.22c-1134.88,136.75 -1586.16,-177.78 -1586.16,-1066.57l0 -1640.9 -629.07 0 0 -711.08 629.07 0 0 -918.33 738.36 -218.73 0 1137.1 847.8 -0.04 0 711.08zm3231.81 -711.08l738.36 0 0 3418.62 -738.36 0 0 -492.24c-259.9,362.29 -663.22,581.13 -1196.59,581.13 -929.71,0 -1702.33,-786.3 -1702.33,-1798.1 0,-1018.7 772.59,-1798.09 1702.4,-1798.09 533.27,0 936.73,218.73 1196.52,574.22l0 -485.54zm-1080.31 2803.33c615.28,0 1080.35,-458.15 1080.35,-1093.92 0,-635.76 -464.96,-1093.92 -1080.35,-1093.92 -615.39,0 -1080.25,458.06 -1080.25,1093.92 0,635.87 464.96,1093.92 1080.25,1093.92zm3049.31 -3316.12c-259.9,0 -471.76,-218.84 -471.76,-471.83 0.52,-260.32 211.51,-471.31 471.8,-471.76 260.31,0.45 471.31,211.44 471.76,471.72 0,253 -211.97,471.84 -471.76,471.84l-0.04 0.03zm-369.16 3931.23l0 -3418.44 738.36 0 0 3418.62 -738.36 -0.18zm1592.96 0l0 -4990.89 738.43 0 0 4991 -738.43 -0.11zm5531.14 -3418.51l779.42 0 -1073.37 3418.69 -724.75 0 -711.09 -2304.12 -717.84 2304.12 -724.66 0 -1073.44 -3418.52 779.39 0 663.22 2358.75 717.85 -2358.75 704.2 0 711.09 2358.75 669.98 -2358.92zm1695.63 -512.72c-259.9,0 -471.76,-218.84 -471.76,-471.83 0.49,-260.32 211.48,-471.31 471.76,-471.76 260.32,0.45 471.32,211.44 471.77,471.72 0,253 -211.97,471.84 -471.77,471.84l0 0.03zm-369.16 3931.23l0 -3418.44 738.33 0 0 3418.62 -738.33 -0.18zm3391.06 -3507.43c765.82,0 1312.76,519.69 1312.76,1408.45l0 2098.95 -738.33 0.03 0 -2023.66c0,-519.6 -300.92,-793.07 -765.89,-793.07 -485.33,0 -868.2,287.18 -868.2,984.45l0 1832.46 -738.37 0 0 -3418.62 738.37 0 0 437.58c225.64,-355.49 594.8,-526.5 1059.76,-526.5l-0.1 -0.07zm4813.39 -1278.4l738.33 0 0 4786.01 -738.33 0 0 -492.24c-259.9,362.29 -663.21,581.13 -1196.52,581.13 -929.81,0 -1702.4,-786.3 -1702.4,-1798.1 0,-1018.7 772.59,-1798.09 1702.4,-1798.09 533.27,0 936.73,218.73 1196.52,574.22l0 -1852.93zm-1080.35 4170.72c615.29,0 1080.25,-458.15 1080.25,-1093.92 0,-635.76 -464.96,-1093.92 -1080.25,-1093.92 -615.28,0 -1080.24,458.06 -1080.24,1093.92 0,635.87 464.86,1093.92 1080.24,1093.92zm4293.6 704.18c-1032.38,0 -1804.9,-786.3 -1804.9,-1798.1 0,-1018.7 772.52,-1798.09 1804.9,-1798.09 670.02,0 1251.22,348.62 1524.72,881.88l-635.86 369.17c-150.43,-321.23 -485.44,-526.4 -895.67,-526.4 -601.71,0 -1059.76,458.05 -1059.76,1073.44 0,615.39 458.05,1073.38 1059.76,1073.38 410.23,0 745.24,-211.97 909.34,-526.4l635.77 362.29c-287.08,540.18 -868.28,888.86 -1538.23,888.86l-0.07 -0.03zm2755.29 -2563.91c0,622.19 1839.16,246.12 1839.16,1511.05 0,683.69 -594.81,1052.86 -1333.17,1052.86 -683.7,0 -1176.04,-307.66 -1394.78,-799.87l635.87 -369.27c109.37,307.66 382.84,492.24 758.91,492.24 328.14,0 581.13,-109.29 581.13,-382.83 0,-608.49 -1839.15,-266.6 -1839.15,-1490.47 0,-642.67 553.74,-1045.99 1251.15,-1045.99 560.65,0 1025.61,259.69 1264.82,710.98l-622.08 348.68c-123.05,-266.6 -362.36,-389.74 -642.74,-389.74 -266.6,0 -499.12,116.27 -499.12,362.36zm3151.95 0c0,622.19 1839.16,246.12 1839.16,1511.05 0,683.69 -594.81,1052.86 -1333.24,1052.86 -683.7,0 -1175.94,-307.66 -1394.78,-799.87l635.87 -369.27c109.37,307.66 382.94,492.24 758.91,492.24 328.21,0 581.13,-109.29 581.13,-382.83 0,-608.49 -1839.16,-266.6 -1839.16,-1490.47 0,-642.67 553.75,-1045.99 1251.23,-1045.99 560.54,0 1025.5,259.69 1264.82,710.98l-622.19 348.68c-123.04,-266.6 -362.36,-389.74 -642.67,-389.74 -266.7,0 -499.11,116.27 -499.11,362.36l0.03 0z"/>
  </g>
 </g>
</svg>
