<?xml version="1.0" encoding="UTF-8"?>
<!DOCTYPE svg PUBLIC "-//W3C//DTD SVG 1.1//EN" "http://www.w3.org/Graphics/SVG/1.1/DTD/svg11.dtd">
<!-- Creator: CorelDRAW -->
<svg xmlns="http://www.w3.org/2000/svg" xml:space="preserve" width="254.254mm" height="50.8mm" version="1.1" style="shape-rendering:geometricPrecision; text-rendering:geometricPrecision; image-rendering:optimizeQuality; fill-rule:evenodd; clip-rule:evenodd"
viewBox="0 0 25425.4 5080"
 xmlns:xlink="http://www.w3.org/1999/xlink"
 xmlns:xodm="http://www.corel.com/coreldraw/odm/2003">
 <defs>
  <style type="text/css">
   <![CDATA[
    .fil0 {fill:black}
   ]]>
  </style>
 </defs>
 <g id="Layer_x0020_1">
  <metadata id="CorelCorpID_0Corel-Layer"/>
  <path class="fil0" d="M5838.32 5080l-2921 -5080 -2921 5080 5842 0zm2946.24 -231.25l2441.11 -4617.83 -1055.88 0 -1683.92 3353.64 -1683.94 -3353.64 -1055.88 0 2441.11 4617.83 597.4 0zm16636.06 -4617.83l0 4617.85 -874.1 0 0 -4617.85 874.1 0zm-4865.75 2894.26c0,-359.89 75.11,-676.42 225.33,-949.58 150.23,-273.18 359.69,-483.47 628.27,-630.89 268.57,-147.42 582.77,-221.15 942.45,-221.15 318.69,0 605.52,69.39 860.47,208.14 254.96,138.75 457.54,344.72 607.77,617.88 150.22,273.17 227.71,607.04 232.2,1001.62l0 201.62 -2574.53 0c18.12,286.18 102.35,511.65 252.58,676.42 154.85,160.43 362.06,240.65 621.51,240.65 163.85,0 314.2,-43.36 450.67,-130.08 136.6,-86.73 239.08,-203.79 307.32,-351.22l894.71 65.04c-109.35,325.19 -314.19,585.36 -614.64,780.47 -300.57,195.13 -646.51,292.69 -1038.06,292.69 -359.68,0 -673.88,-73.71 -942.45,-221.14 -268.58,-147.42 -478.04,-357.72 -628.27,-630.88 -150.22,-273.18 -225.33,-589.69 -225.33,-949.59zm2595.03 -325.2c-31.86,-281.85 -120.6,-487.79 -266.32,-617.88 -145.73,-134.42 -323.2,-201.63 -532.66,-201.63 -241.33,0 -437.04,71.55 -587.27,214.63 -150.35,143.09 -243.58,344.72 -280.07,604.88l1666.32 0zm-4070.02 -617.88c145.73,117.07 236.71,279.67 273.2,487.8l901.34 -45.53c-31.86,-264.49 -125.1,-494.3 -279.95,-689.43 -154.84,-195.12 -355.06,-344.7 -601.01,-448.77 -241.21,-108.4 -507.53,-162.61 -798.98,-162.61 -359.69,0 -673.76,73.73 -942.46,221.15 -268.57,147.42 -478.04,357.71 -628.26,630.89 -150.22,273.16 -225.34,589.69 -225.34,949.58 0,359.9 75.12,676.41 225.34,949.59 150.22,273.16 359.69,483.46 628.26,630.88 268.7,147.43 582.77,221.14 942.46,221.14 300.44,0 573.64,-54.2 819.47,-162.59 245.96,-112.75 446.17,-271.01 601.02,-474.81 154.85,-203.79 248.08,-442.27 279.95,-715.43l-908.21 -39.03c-31.87,229.81 -120.73,407.59 -266.33,533.33 -145.72,121.41 -321.07,182.11 -525.9,182.11 -282.2,0 -500.79,-97.55 -655.64,-292.68 -154.72,-195.12 -232.08,-472.61 -232.08,-832.51 0,-359.89 77.36,-637.39 232.08,-832.52 154.85,-195.11 373.44,-292.67 655.64,-292.67 195.84,0 364.18,60.7 505.4,182.11zm-4434.32 -780.64l813.48 0 23.49 663.46c57.74,-187.8 137.98,-333.63 240.83,-437.51 149.1,-150.62 357.06,-225.95 623.64,-225.95l332.19 0 0 710.12 -338.94 0c-189.84,0 -345.69,25.83 -467.79,77.46 -117.48,51.65 -207.84,133.42 -271.07,245.32 -58.74,111.89 -88.11,253.92 -88.11,426.06l0 1988.33 -867.72 0 0 -3447.29zm-3752.14 774.14c-150.24,273.16 -225.36,589.69 -225.36,949.58 0,359.9 75.12,676.41 225.36,949.59 150.25,273.16 359.67,483.46 628.3,630.88 268.62,147.43 582.76,221.14 942.43,221.14 391.48,0 737.54,-97.56 1037.99,-292.69 300.57,-195.11 505.41,-455.28 614.64,-780.47l-894.59 -65.04c-68.24,147.43 -170.72,264.49 -307.32,351.22 -136.6,86.72 -286.83,130.08 -450.72,130.08 -259.52,0 -466.67,-80.22 -621.46,-240.65 -150.25,-164.77 -234.47,-390.24 -252.68,-676.42l2574.64 0 0 -201.62c-4.63,-394.58 -81.99,-728.45 -232.21,-1001.62 -150.23,-273.16 -352.82,-479.13 -607.77,-617.88 -254.95,-138.75 -541.78,-208.14 -860.52,-208.14 -359.67,0 -673.81,73.73 -942.43,221.15 -268.63,147.42 -478.05,357.71 -628.3,630.89zm2103.44 6.5c145.59,130.09 234.45,336.03 266.32,617.88l-1666.35 0c36.43,-260.16 129.77,-461.79 280,-604.88 150.25,-143.08 346.01,-214.63 587.32,-214.63 209.39,0 386.98,67.21 532.71,201.63z"/>
 </g>
</svg>
