<?xml version="1.0" encoding="UTF-8"?>
<!DOCTYPE svg PUBLIC "-//W3C//DTD SVG 1.0//EN" "http://www.w3.org/TR/2001/REC-SVG-20010904/DTD/svg10.dtd">
<!-- Creator: CorelDRAW -->
<svg xmlns="http://www.w3.org/2000/svg" xml:space="preserve" width="30in" height="30in" version="1.0" style="shape-rendering:geometricPrecision; text-rendering:geometricPrecision; image-rendering:optimizeQuality; fill-rule:evenodd; clip-rule:evenodd"
viewBox="0 0 30000 30000"
 xmlns:xlink="http://www.w3.org/1999/xlink"
 xmlns:xodm="http://www.corel.com/coreldraw/odm/2003">
 <defs>
  <style type="text/css">
   <![CDATA[
    .fil2 {fill:none}
    .fil0 {fill:#F54900}
    .fil1 {fill:white}
   ]]>
  </style>
   <clipPath id="id0">
    <path d="M15000 2500c6903.56,0 12500,5596.44 12500,12500 0,6903.56 -5596.44,12500 -12500,12500 -6903.56,0 -12500,-5596.44 -12500,-12500 0,-6903.56 5596.44,-12500 12500,-12500z"/>
   </clipPath>
 </defs>
 <g id="Layer_x0020_1">
  <metadata id="CorelCorpID_0Corel-Layer"/>
  <rect class="fil0" width="30000" height="30000"/>
  <g>
  </g>
  <g style="clip-path:url(#id0)">
   <g id="_1689091687136">
    <path class="fil1" d="M8803.14 26480.8l2460.55 -2460.55 0 3479.75 3173.45 0 0 -6351.86c-277.31,-757.71 -650.39,-1470.3 -1104.48,-2122.82 -782.5,140.32 -1550.18,380.38 -2282.06,720.08l-4491.44 4491.44 2243.97 2243.96zm6196.86 -5554.63c0,-3259.39 2666.78,-5926.17 5926.17,-5926.17 -3259.39,0 -5926.17,-2666.78 -5926.17,-5926.17 0,3259.39 -2666.78,5926.17 -5926.17,5926.17 3259.39,0 5926.17,2666.78 5926.17,5926.17zm562.86 221.97l0 6351.86 3173.45 -0 0 -3479.75 2460.55 2460.55 2243.97 -2243.96 -4491.3 -4491.3c-731.91,-339.72 -1499.64,-579.81 -2282.2,-720.22 -454.09,652.53 -827.17,1365.11 -1104.48,2122.82zm4182.67 -2198.61l4491.3 4491.3 2243.97 -2243.97 -2460.55 -2460.55 3479.74 0 0 -3173.45 -6351.66 0c-757.75,277.33 -1470.39,650.42 -2123.02,1104.48 140.41,782.56 380.5,1550.28 720.21,2282.19zm1402.81 -4512.39l6351.66 0 -0 -3173.45 -3479.75 0 2460.55 -2460.55 -2243.96 -2243.97 -4491.44 4491.44c-339.7,731.88 -579.76,1499.56 -720.08,2282.06 652.63,454.06 1365.26,827.15 2123.02,1104.48zm-2198.81 -4182.67l4491.3 -4491.3 -2243.97 -2243.97 -2460.55 2460.55 0 -3479.74 -3173.45 -0 0 6351.86c277.31,757.72 650.4,1470.3 1104.48,2122.82 782.55,-140.41 1550.28,-380.5 2282.19,-720.21zm-4512.39 -1402.81l0 -6351.66 -3173.45 0 0 3479.74 -2460.55 -2460.55 -2243.97 2243.97 4491.44 4491.44c731.87,339.7 1499.56,579.76 2282.06,720.08 454.06,-652.63 827.16,-1365.27 1104.48,-2123.02zm-4182.69 2198.8l-4491.29 -4491.3 -2243.96 2243.97 2460.55 2460.55 -3479.75 0 -0 3173.45 6351.85 0c757.72,-277.31 1470.3,-650.39 2122.82,-1104.48 -140.41,-782.56 -380.5,-1550.29 -720.22,-2282.2zm-1402.8 4512.4l-6351.65 0 0 3173.45 3479.74 0 -2460.55 2460.55 2243.97 2243.97 4491.43 -4491.43c339.7,-731.87 579.76,-1499.57 720.08,-2282.06 -652.63,-454.06 -1365.27,-827.15 -2123.02,-1104.48z"/>
   </g>
  </g>
  <path class="fil2" d="M15000 2500c6903.56,0 12500,5596.44 12500,12500 0,6903.56 -5596.44,12500 -12500,12500 -6903.56,0 -12500,-5596.44 -12500,-12500 0,-6903.56 5596.44,-12500 12500,-12500z"/>
 </g>
</svg>
