<?xml version="1.0" encoding="UTF-8"?>
<!DOCTYPE svg PUBLIC "-//W3C//DTD SVG 1.0//EN" "http://www.w3.org/TR/2001/REC-SVG-20010904/DTD/svg10.dtd">
<!-- Creator: CorelDRAW -->
<svg xmlns="http://www.w3.org/2000/svg" xml:space="preserve" width="254mm" height="254mm" version="1.0" style="shape-rendering:geometricPrecision; text-rendering:geometricPrecision; image-rendering:optimizeQuality; fill-rule:evenodd; clip-rule:evenodd"
viewBox="0 0 25400 25400"
 xmlns:xlink="http://www.w3.org/1999/xlink"
 xmlns:xodm="http://www.corel.com/coreldraw/odm/2003">
 <defs>
  <style type="text/css">
   <![CDATA[
    .fil0 {fill:#F54900}
    .fil1 {fill:white}
   ]]>
  </style>
 </defs>
 <g id="Layer_x0020_1">
  <metadata id="CorelCorpID_0Corel-Layer"/>
  <rect class="fil0" x="-0" y="-0" width="25400" height="25400" rx="6350" ry="6350"/>
  <path class="fil1" d="M8574.95 20586.99l1464.99 -1465 0 2072.88c718.13,224.8 1475.64,360.39 2259.34,395.13l0 -4512.81c0,-574.45 -263.43,-1294.76 -786.33,-1511.34 -522.9,-216.59 -1218.52,106.46 -1624.72,512.66l-3191.14 3191.14c564.11,515.67 1194.92,959.41 1877.86,1317.34zm4525.79 -16776.97c783.71,34.73 1541.21,170.32 2259.35,395.13l0 2072.88 1464.99 -1464.99c682.91,357.96 1313.83,801.6 1877.87,1317.33l-3191.06 3191.06c-406.22,406.22 -1101.84,729.32 -1624.81,512.76 -522.91,-216.56 -786.34,-936.9 -786.34,-1511.36l0 -4512.81zm6168.91 2887.07c515.66,564.11 959.43,1194.92 1317.34,1877.86l-1465 1464.99 2072.88 0c224.65,718.22 360.38,1475.64 395.13,2259.35l-4512.67 0c-574.47,0 -1294.83,-263.41 -1511.48,-786.34 -216.64,-522.89 106.46,-1218.52 512.66,-1624.71l3191.14 -3191.15zm2320.34 6403.65c-34.74,783.72 -170.33,1541.21 -395.13,2259.35l-2072.86 0 1464.98 1464.98c-357.96,682.9 -801.6,1313.83 -1317.33,1877.86l-3191.05 -3191.04c-406.21,-406.21 -729.37,-1101.86 -512.75,-1624.81 216.61,-522.95 937.01,-786.34 1511.48,-786.34l4512.66 0zm-2887.06 6168.91c-564.11,515.65 -1194.92,959.42 -1877.86,1317.33l-1464.98 -1464.99 0 2072.87c-718.22,224.65 -1475.64,360.39 -2259.35,395.13l0 -4512.8c0,-574.44 263.42,-1294.8 786.34,-1511.34 522.97,-216.57 1218.6,106.54 1624.82,512.75l3191.03 3191.05zm-12572.56 -566.7c-515.61,-564.1 -959.4,-1194.94 -1317.33,-1877.87l1464.99 -1464.99 -2072.88 0c-224.62,-718.22 -360.39,-1475.64 -395.13,-2259.35l4512.67 0c574.47,0 1294.83,263.41 1511.49,786.34 216.64,522.88 -106.47,1218.51 -512.67,1624.71l-3191.14 3191.16zm-2320.36 -6403.66c34.74,-783.71 170.34,-1541.21 395.13,-2259.35l2072.89 0 -1465 -1465c357.96,-682.91 801.59,-1313.84 1317.33,-1877.87l3191.06 3191.07c406.22,406.21 729.33,1101.84 512.76,1624.81 -216.55,522.92 -936.9,786.34 -1511.35,786.34l-4512.82 0zm2887.06 -6168.93c564.1,-515.66 1194.93,-959.43 1877.87,-1317.33l1465 1465 0 -2072.89c718.22,-224.65 1475.64,-360.39 2259.34,-395.13l0 4512.68c0,574.49 -263.4,1294.84 -786.34,1511.5 -522.88,216.63 -1218.51,-106.47 -1624.71,-512.67l-3191.16 -3191.16zm6002.95 10788.8c0,-2320.53 1898.61,-4219.14 4219.14,-4219.14 -2320.53,0 -4219.14,-1898.62 -4219.14,-4219.15 0,2320.53 -1898.63,4219.15 -4219.16,4219.15 2320.53,0 4219.16,1898.61 4219.16,4219.14z"/>
 </g>
</svg>
