<?xml version="1.0"?><svg version="1.2" baseProfile="tiny-ps" viewBox="0 0 300 300" xmlns="http://www.w3.org/2000/svg" xmlns:xlink="http://www.w3.org/1999/xlink"><title>markify</title><g><g fill="#fff" transform="matrix(.1 0 0 -.1 0 300)"><path d="M0 1500V0h3000v3000H0V1500z"/></g><g fill="#ffe6da" transform="matrix(.1 0 0 -.1 0 300)"><path d="M0 1500V0h3000v3000H0V1500zm1312 925 98-260 26-22 25-23h81l25 28 25 27 97 255 97 255 25 3 26 3 82-30c105-38 214-97 314-168l77-56v-32l-207-206c-115-113-222-216-240-228-58-39-151-81-215-96l-63-15h-170l-63 15c-64 15-157 57-215 96-18 12-125 115-239 228l-208 206v32l78 55c99 72 195 124 302 165l85 33 30-3 29-2 98-260zm-511-322c113-115 216-222 228-240 39-58 81-151 96-215l15-63v-170l-16-65-15-65-36-75-37-75-220-223-220-222h-31l-58 78-57 77-54 110c-61 123-89 204-84 237l3 22 260 98 260 98 23 26 22 25v77l-19 23-19 24-264 100-263 101-3 25-3 26 30 82c38 105 97 214 168 314l56 77h32l206-207zm1692 130c71-100 130-209 168-314l30-82-3-25-3-25-260-99-260-99-22-25-23-25v-81l28-25 27-25 255-97 255-97 3-25 3-26-30-82c-38-105-97-214-168-314l-56-77h-32l-206 207c-113 115-216 222-228 240-39 58-81 151-96 215l-15 63v170l15 63c15 64 57 157 96 215 12 18 115 125 228 240l206 207h32l56-77zm-843-1109 65-15 75-36 75-37 223-220 222-220v-33l-77-56c-100-71-209-130-314-168l-82-30-25 3-25 3-99 260-99 260-25 23-25 22h-81l-25-27-25-28-97-255-97-255-25-3-26-3-82 30c-105 38-214 97-313 168l-78 56v32l208 206c114 113 221 216 239 228 56 38 151 81 210 95l58 14 90 1 90 1 65-16z"/></g><g fill="#fdcab4" transform="matrix(.1 0 0 -.1 0 300)"><path d="M0 1500V0h3000v3000H0V1500zm1305 948c123-325 125-328 197-328h33l23 18 23 18 100 260 100 259 15 11 15 12 72-23c130-42 256-108 374-197l53-40v-34l-222-221-223-220-75-36c-41-20-102-44-135-52l-59-15h-192l-59 15c-33 8-94 32-135 52l-75 36-222 220-223 221v34l53 40c116 88 232 148 372 196l70 23 16-8 16-8 88-233zm-488-360 220-223 36-75c20-41 44-102 52-135l15-59v-192l-15-59c-8-33-32-94-52-135l-36-75-220-222-221-223h-32l-50 67c-86 116-138 214-184 350l-28 82 11 15 12 15 237 90c131 50 251 97 267 106 36 18 51 43 51 85v31l-15 23-15 23-38 16c-20 9-138 55-262 102s-231 91-238 98l-12 13 29 84c50 147 103 248 193 367l40 53h34l221-222zm1661 169c89-119 155-244 197-377l24-75-12-12c-7-7-120-53-252-103-274-105-274-105-297-134l-18-21v-66l15-23 15-23 38-16c20-9 138-55 262-102s231-91 238-98l12-13-29-84c-50-147-103-248-193-367l-40-53h-34l-221 222-220 223-36 75c-20 41-44 102-52 135l-15 59v192l15 59c8 33 32 94 52 135l36 75 220 223 221 222h34l40-53zm-766-1149c37-14 93-41 125-59l57-34 208-204 208-204v-45l-53-40c-118-89-220-143-364-192l-82-28-15 11-15 12-90 237c-49 130-97 250-106 267-19 37-43 51-87 51h-33l-23-18-23-18-100-260-100-259-15-11-15-12-72 23c-130 42-256 108-374 197l-53 40v34l223 221 222 220 75 36c41 20 100 44 130 52l55 15 125-4 125-3 67-25z"/></g><g fill="#fca782" transform="matrix(.1 0 0 -.1 0 300)"><path d="M0 1500V0h3000v3000H0V1500zm1214 1178c8-13 51-117 94-233 44-115 87-228 96-251l17-40 28-17c16-9 40-17 54-17h25l29 24 29 24 93 249 94 248 18 19 17 18 68-22c137-46 260-110 372-193 29-22 58-49 63-60l11-19-174-175c-258-260-338-319-489-359l-64-16h-190l-64 16c-151 40-231 99-489 359l-174 175 11 19c20 39 185 149 297 199 67 30 183 72 201 73 7 1 19-9 27-21zm-418-560c99-101 197-203 216-228 47-60 93-152 114-231l16-64v-190l-16-64c-40-151-98-230-354-484L593 679l-15 6c-20 8-92 101-140 180-40 67-96 191-123 274l-17 53 14 15c9 8 80 39 159 69s197 75 262 100l117 46 15 28c8 16 15 40 15 54v24l-24 29-24 29-249 93-248 94-19 18-18 17 26 80c47 140 146 318 222 399l33 34 18-10c10-5 99-92 199-193zm1691 130c83-112 147-235 193-371l22-69-14-14c-8-8-125-57-260-109-135-51-255-99-266-106-24-15-42-51-42-84v-23l24-30 25-29 248-93 248-93 19-17 18-18-22-68c-46-137-110-260-193-372-22-29-49-58-60-63l-19-11-175 174c-260 258-319 338-359 489l-16 64v190l16 64c40 151 99 231 359 489l175 174 19-11c11-5 38-34 60-63zm-823-1124c33-9 88-29 123-47l65-31 71-62c97-83 397-387 397-402 0-16-98-92-182-143-81-48-169-88-261-119l-69-22-14 14c-8 8-39 79-70 159-30 79-75 196-99 259l-45 116-29 17c-16 9-40 17-54 17h-25l-29-24-29-24-93-249-94-248-18-19-17-18-68 22c-137 46-260 110-372 193-29 22-58 49-63 60l-11 19 174 175c286 288 367 342 563 374l50 8 70-5c39-3 97-12 129-20z"/></g><g fill="#f9804d" transform="matrix(.1 0 0 -.1 0 300)"><path d="M0 1500V0h3000v3000H0V1500zm1316 931 100-264 29-24 28-25 36 6 36 5 21 24 20 24 99 257 98 258 13 5c19 7 142-33 232-77 95-46 199-111 256-162l39-34-11-19c-5-11-102-110-214-221l-203-200-60-36c-33-20-96-49-140-64l-80-28h-230l-80 28c-44 15-107 44-140 64l-60 36-203 200c-112 111-209 210-214 221l-11 19 39 34c51 45 153 111 234 152s218 90 245 87l20-2 101-264zm-510-323 210-213 36-60c20-33 49-96 64-140l28-80v-230l-28-82-27-82-49-73-49-73-199-199-200-199-16 6c-8 3-42 43-75 87l-60 81-45 89c-24 49-57 127-72 174l-28 86 10 10c5 5 124 53 264 105l255 96 28 30 27 29v56l-16 22c-21 30-36 37-309 141-132 50-244 96-249 101l-9 9 17 63c21 76 89 222 141 304 48 76 114 154 128 154 7 0 107-96 223-212zm1662 165c84-101 175-270 213-396l21-67-5-13-5-13-258-98-259-98-27-29-28-29v-56l16-22c21-30 36-37 309-141 132-50 244-96 249-101l9-9-17-63c-35-125-143-325-228-422l-34-39-19 11c-11 5-110 102-221 214l-200 203-36 60c-20 33-49 96-64 140l-28 80v230l28 80c15 44 44 107 64 140l36 60 210 213c116 116 216 212 223 212 6 0 29-21 51-47zm-771-1158 82-26 73-49 73-49 200-200 200-201-11-18c-20-32-145-119-242-170l-97-50-87-28-88-28-9 9c-6 6-53 125-106 265l-97 255-30 29-31 28-36-6-36-5-21-24-20-24-99-257-98-258-13-5c-19-7-142 33-232 77-95 46-199 111-256 162l-39 34 11 19c6 11 100 108 209 216l198 196 57 37c67 42 141 73 223 92l60 14 90-4 90-4 82-27z"/></g><g fill="#f64902" transform="matrix(.1 0 0 -.1 0 300)"><path d="M0 1500V0h3000v3000H0V1500zm1217 1188c5-7 52-125 104-263l93-249 21-23 20-23 30-5 30-6 31 19 30 19 99 259c54 143 104 266 111 274l14 14 47-12c130-35 279-111 406-205l67-51v-32l-222-221-223-220-85-42-85-41-70-15-70-15h-130l-70 15-70 15-85 41-85 42-222 220-223 221v32l68 51c80 60 170 114 237 144 77 33 178 67 201 68l22 1 9-12zm-400-590 220-223 42-85 41-85 15-70 15-70v-130l-15-70-15-70-41-85-42-85-220-223-221-222h-31l-51 67c-91 122-158 250-200 386l-18 58 10 16 9 15 258 98 258 97 19 18c10 9 22 30 25 45l6 29-15 30c-9 17-24 35-34 40-9 5-127 51-262 101-135 51-252 99-260 106l-14 14 12 47c35 130 111 279 205 406l51 67h32l221-222zm1670 155c94-127 170-276 205-406l12-47-14-13c-8-8-121-53-250-102s-247-94-262-102l-28-13-15-31-16-30 6-29c3-15 14-35 24-44l19-17 256-98c141-53 262-103 268-109l12-12-12-47c-35-130-111-279-205-406l-51-67h-32l-221 222-220 223-42 85-41 85-15 70-15 70v130l15 70 15 70 41 85 42 85 220 223 221 222h32l51-67zm-852-1118 70-15 85-41 85-42 223-220 222-221v-31l-52-41c-68-53-176-119-247-151-74-33-190-73-212-73h-18l-14 28c-8 15-54 133-103 262l-88 234-21 23-20 23-30 5-30 6-31-19-30-19-99-259c-54-143-104-266-111-274l-14-14-47 12c-130 35-279 111-405 205l-68 51v32l223 221 222 220 85 42 85 41 65 14 65 14 70 1 70 1 70-15z"/></g></g></svg>