<?xml version="1.0" encoding="UTF-8"?>
<!DOCTYPE svg PUBLIC "-//W3C//DTD SVG 1.0//EN" "http://www.w3.org/TR/2001/REC-SVG-20010904/DTD/svg10.dtd">
<!-- Creator: CorelDRAW -->
<svg xmlns="http://www.w3.org/2000/svg" xml:space="preserve" width="30in" height="30in" version="1.0" style="shape-rendering:geometricPrecision; text-rendering:geometricPrecision; image-rendering:optimizeQuality; fill-rule:evenodd; clip-rule:evenodd"
viewBox="0 0 30000 30000"
 xmlns:xlink="http://www.w3.org/1999/xlink"
 xmlns:xodm="http://www.corel.com/coreldraw/odm/2003">
 <defs>
  <style type="text/css">
   <![CDATA[
    .fil1 {fill:none}
    .fil0 {fill:white}
   ]]>
  </style>
   <clipPath id="id0">
    <path d="M15000 0c8284.27,0 15000,6715.73 15000,15000 0,8284.27 -6715.73,15000 -15000,15000 -8284.27,0 -15000,-6715.73 -15000,-15000 0,-8284.27 6715.73,-15000 15000,-15000z"/>
   </clipPath>
 </defs>
 <g id="Layer_x0020_1">
  <metadata id="CorelCorpID_0Corel-Layer"/>
  <g>
  </g>
  <g style="clip-path:url(#id0)">
   <g id="_2130825441344">
    <path class="fil0" d="M7563.76 28776.96l2952.67 -2952.67 0 4175.7 3808.14 0 0 -7622.24c-332.77,-909.26 -780.47,-1764.35 -1325.38,-2547.38 -939,168.38 -1860.22,456.46 -2738.47,864.09l-5389.72 5389.72 2692.76 2692.76zm7436.24 -6665.55c0,-3911.28 3200.13,-7111.41 7111.41,-7111.41 -3911.28,0 -7111.41,-3200.13 -7111.41,-7111.41 0,3911.28 -3200.13,7111.41 -7111.41,7111.41 3911.28,0 7111.41,3200.13 7111.41,7111.41zm675.43 266.36l0 7622.23 3808.15 -0 0 -4175.7 2952.66 2952.66 2692.76 -2692.76 -5389.56 -5389.56c-878.3,-407.66 -1799.57,-695.77 -2738.63,-864.26 -544.91,783.03 -992.61,1638.13 -1325.38,2547.39zm5019.21 -2638.33l5389.56 5389.56 2692.76 -2692.77 -2952.66 -2952.66 4175.69 0 0 -3808.14 -7621.99 0c-909.3,332.79 -1764.47,780.5 -2547.63,1325.38 168.49,939.06 456.6,1860.34 864.26,2738.63zm1683.37 -5414.87l7622 0 -0 -3808.15 -4175.7 0 2952.66 -2952.66 -2692.76 -2692.76 -5389.72 5389.72c-407.64,878.25 -695.71,1799.47 -864.09,2738.47 783.16,544.87 1638.32,992.59 2547.62,1325.38zm-2638.57 -5019.21l5389.56 -5389.56 -2692.77 -2692.76 -2952.66 2952.66 0 -4175.69 -3808.15 -0 0 7622.23c332.78,909.26 780.48,1764.36 1325.38,2547.39 939.06,-168.49 1860.33,-456.6 2738.63,-864.26zm-5414.87 -1683.37l0 -7621.99 -3808.14 0 0 4175.69 -2952.66 -2952.66 -2692.77 2692.76 5389.72 5389.72c878.25,407.63 1799.47,695.71 2738.46,864.09 544.88,-783.16 992.59,-1638.32 1325.38,-2547.63zm-5019.22 2638.56l-5389.55 -5389.55 -2692.76 2692.76 2952.66 2952.66 -4175.7 0 -0 3808.15 7622.22 0c909.26,-332.77 1764.36,-780.47 2547.39,-1325.38 -168.49,-939.07 -456.61,-1860.35 -864.26,-2738.64zm-1683.37 5414.88l-7621.98 0 0 3808.14 4175.69 0 -2952.66 2952.66 2692.76 2692.77 5389.72 -5389.72c407.64,-878.25 695.72,-1799.48 864.1,-2738.48 -783.16,-544.87 -1638.33,-992.59 -2547.63,-1325.38z"/>
   </g>
  </g>
  <path class="fil1" d="M15000 0c8284.27,0 15000,6715.73 15000,15000 0,8284.27 -6715.73,15000 -15000,15000 -8284.27,0 -15000,-6715.73 -15000,-15000 0,-8284.27 6715.73,-15000 15000,-15000z"/>
 </g>
</svg>
